<svg width="502" height="502" viewBox="0 0 502 502" fill="none" xmlns="http://www.w3.org/2000/svg">
<path d="M291.651 48.3555C329.107 64.7469 366.904 81.6901 404.113 97.6118C418.35 103.706 434.892 105.432 450.363 101.804C450.495 101.772 450.616 101.708 450.716 101.617C450.816 101.526 450.891 101.412 450.935 101.284C450.978 101.156 450.988 101.019 450.964 100.886C450.941 100.753 450.883 100.629 450.798 100.524C443.07 91.0756 435.06 81.7841 426.768 72.6491C424.229 69.8663 421.172 67.4592 418.35 64.8996C416.07 62.8252 413.781 60.8996 411.485 59.1227C402.08 51.8506 391.44 44.3673 379.566 36.6726C372.849 32.3203 366.054 28.563 359.18 25.4006C330.777 12.3517 302.162 4.56304 273.335 2.03467C219.584 -2.66983 169.365 8.66871 122.676 36.0503C96.2946 51.5141 72.9581 72.5551 53.8186 96.1794C53.716 96.3062 53.6482 96.4575 53.6219 96.6185C53.5956 96.7794 53.6118 96.9444 53.6687 97.0973C53.7256 97.2501 53.8214 97.3855 53.9467 97.4901C54.0719 97.5948 54.2222 97.665 54.3829 97.694C67.4247 99.9406 79.9923 99.8897 92.0858 97.5414C100.28 95.9445 109.015 92.1872 116.974 88.7351C148.983 74.8643 180.988 60.9387 212.989 46.9583C222.386 42.8565 231.858 40.2812 241.404 39.2323C251.382 38.1364 260.846 38.7156 269.796 40.97C276.862 42.7548 284.739 45.3262 291.651 48.3555Z" fill="#92BCBA"/>
<path d="M190.334 217.976C195.727 215.573 201.562 212.97 207.84 210.167C225.016 202.5 242.733 198.485 260.767 200.762C269.271 201.835 277.52 204.019 285.514 207.314C288.042 208.348 290.687 209.158 293.168 210.273C330.044 226.876 365.682 242.535 400.081 257.252C419.702 265.647 439.841 268.124 460.192 260.457C473.723 255.361 486.526 248.011 499.399 240.978C499.927 240.687 500.359 240.249 500.641 239.717C500.923 239.185 501.043 238.583 500.986 237.983C500.414 231.886 499.748 225.682 498.988 219.373C496.801 201.197 492.639 183.6 486.502 166.582C486.446 166.426 486.358 166.283 486.243 166.164C486.128 166.044 485.989 165.95 485.836 165.888C485.682 165.825 485.518 165.797 485.353 165.803C485.188 165.81 485.027 165.851 484.88 165.925C478.328 169.158 471.948 172.305 465.741 175.365C462.872 176.786 459.827 177.573 456.865 178.77C454.952 179.553 452.985 180.128 450.963 180.496C438.909 182.712 427.317 182.543 416.187 179.991C411.101 178.817 404.286 176.363 395.743 172.629C362.629 158.124 328.41 143.142 293.086 127.682C284.676 124.003 277.822 121.522 272.524 120.238C256.598 116.387 240.942 116.688 225.557 121.142C221.759 122.234 218.162 123.725 214.435 125.04C211.794 125.964 209.266 126.966 206.852 128.046C178.292 140.766 147.717 154.312 115.128 168.684C107.832 171.901 100.507 174.355 93.1556 176.046C71.4219 181.04 50.9814 178.637 31.834 168.837C27.2725 166.504 22.7855 163.745 18.3729 160.559C18.2564 160.475 18.1219 160.418 17.9798 160.395C17.8377 160.371 17.6918 160.381 17.5533 160.423C17.4147 160.465 17.2873 160.538 17.1807 160.637C17.0742 160.736 16.9913 160.858 16.9386 160.993C8.16833 183.49 2.85835 206.496 1.00867 230.011C0.969235 230.52 1.0648 231.031 1.2857 231.491C1.50661 231.95 1.845 232.343 2.26661 232.629C10.2453 238.062 18.0751 243.181 25.756 247.987C31.1482 251.353 36.2897 253.89 41.1804 255.596C63.788 263.475 87.3127 262.723 109.262 253.494C113.643 251.647 118.017 249.776 122.382 247.882C145.527 237.831 168.177 227.862 190.334 217.976Z" fill="#92BCBA"/>
<path d="M16.0569 338.433C26.4653 366.848 42.2267 393.017 63.3413 416.938C63.8899 417.557 64.5679 417.885 65.3752 417.925C73.3695 418.339 81.4854 417.885 89.7227 416.563C96.5807 415.459 103.145 413.541 109.415 410.809C140.17 397.416 170.16 384.214 199.387 371.204C212.625 365.322 228.507 358.559 242.615 357.713C258.494 356.75 272.888 359.064 285.797 364.653C324.656 381.474 363.311 398.347 401.762 415.271C411.23 419.435 421.148 421.635 431.518 421.87C432.772 421.901 433.928 421.337 434.986 420.179C459.886 392.899 478.057 361.694 489.5 326.563C489.563 326.367 489.583 326.167 489.559 325.964C489.434 325.064 488.975 324.844 488.184 325.306C473.982 333.69 457.405 341.991 441.193 343.318C431.835 344.077 422.508 343.189 413.213 340.653C407.734 339.161 401.386 336.743 395.884 334.3C363.757 320.093 329.386 304.977 292.768 288.954C280.839 283.733 269.71 280.555 259.38 279.42C249.105 278.285 239.253 278.899 229.824 281.263C223.899 282.743 216.34 285.494 207.146 289.518C175.913 303.161 147.184 315.831 120.96 327.525C112.761 331.181 105.543 333.948 99.3042 335.827C78.4797 342.105 58.0078 341.232 37.8886 333.208C28.5893 329.498 19.8307 323.463 11.4249 317.557C9.64573 316.304 9.05399 316.727 9.64965 318.825C11.4523 325.142 13.588 331.678 16.0569 338.433Z" fill="#92BCBA"/>
<path d="M359.357 475.071C337.478 466.054 316.128 456.367 294.496 447.032C285.185 443.016 277.841 440.304 272.465 438.895C256.092 434.629 239.868 435.079 223.793 440.245C221.058 441.122 213.796 444.065 202.008 449.075C186.161 455.815 169.878 462.981 153.16 470.574C149.406 472.281 145.719 474.018 142.098 475.788C142.007 475.834 141.932 475.905 141.879 475.992C141.827 476.079 141.799 476.179 141.801 476.279C141.802 476.38 141.831 476.477 141.886 476.561C141.941 476.644 142.018 476.71 142.109 476.75C149.148 479.858 155.876 482.625 162.295 485.052C176.364 490.375 190.299 494.292 204.101 496.805C218.068 499.357 231.533 500.742 244.496 500.962C269.616 501.392 294.665 498.202 319.643 491.392C333.014 487.744 346.264 482.652 359.392 476.116C359.49 476.067 359.573 475.99 359.629 475.896C359.685 475.801 359.713 475.692 359.71 475.582C359.706 475.472 359.671 475.366 359.608 475.275C359.546 475.185 359.458 475.114 359.357 475.071Z" fill="#92BCBA"/>
<path d="M291.651 48.3555C329.107 64.7469 366.904 81.6901 404.113 97.6118C418.35 103.706 434.892 105.432 450.363 101.804C450.495 101.772 450.616 101.708 450.716 101.617C450.816 101.526 450.891 101.412 450.935 101.284C450.978 101.156 450.988 101.019 450.964 100.886C450.941 100.753 450.883 100.629 450.798 100.524C443.07 91.0756 435.06 81.7841 426.768 72.6491C424.229 69.8663 421.172 67.4592 418.35 64.8996C416.07 62.8252 413.781 60.8996 411.485 59.1227C402.08 51.8506 391.44 44.3673 379.566 36.6726C372.849 32.3203 366.054 28.563 359.18 25.4006C330.777 12.3517 302.162 4.56304 273.335 2.03467C219.584 -2.66983 169.365 8.66871 122.676 36.0503C96.2946 51.5141 72.9581 72.5551 53.8186 96.1794C53.716 96.3062 53.6482 96.4575 53.6219 96.6185C53.5956 96.7794 53.6118 96.9444 53.6687 97.0973C53.7256 97.2501 53.8214 97.3855 53.9467 97.4901C54.0719 97.5948 54.2222 97.665 54.3829 97.694C67.4247 99.9406 79.9923 99.8897 92.0858 97.5414C100.28 95.9445 109.015 92.1872 116.974 88.7351C148.983 74.8643 180.988 60.9387 212.989 46.9583C222.386 42.8565 231.858 40.2812 241.404 39.2323C251.382 38.1364 260.846 38.7156 269.796 40.97C276.862 42.7548 284.739 45.3262 291.651 48.3555Z" stroke="#92BCBA" stroke-width="2"/>
<path d="M190.334 217.976C195.727 215.573 201.562 212.97 207.84 210.167C225.016 202.5 242.733 198.485 260.767 200.762C269.271 201.835 277.52 204.019 285.514 207.314C288.042 208.348 290.687 209.158 293.168 210.273C330.044 226.876 365.682 242.535 400.081 257.252C419.702 265.647 439.841 268.124 460.192 260.457C473.723 255.361 486.526 248.011 499.399 240.978C499.927 240.687 500.359 240.249 500.641 239.717C500.923 239.185 501.043 238.583 500.986 237.983C500.414 231.886 499.748 225.682 498.988 219.373C496.801 201.197 492.639 183.6 486.502 166.582C486.446 166.426 486.358 166.283 486.243 166.164C486.128 166.044 485.989 165.95 485.836 165.888C485.682 165.825 485.518 165.797 485.353 165.803C485.188 165.81 485.027 165.851 484.88 165.925C478.328 169.158 471.948 172.305 465.741 175.365C462.872 176.786 459.827 177.573 456.865 178.77C454.952 179.553 452.985 180.128 450.963 180.496C438.909 182.712 427.317 182.543 416.187 179.991C411.101 178.817 404.286 176.363 395.743 172.629C362.629 158.124 328.41 143.142 293.086 127.682C284.676 124.003 277.822 121.522 272.524 120.238C256.598 116.387 240.942 116.688 225.557 121.142C221.759 122.234 218.162 123.725 214.435 125.04C211.794 125.964 209.266 126.966 206.852 128.046C178.292 140.766 147.717 154.312 115.128 168.684C107.832 171.901 100.507 174.355 93.1556 176.046C71.4219 181.04 50.9814 178.637 31.834 168.837C27.2725 166.504 22.7855 163.745 18.3729 160.559C18.2564 160.475 18.1219 160.418 17.9798 160.395C17.8377 160.371 17.6918 160.381 17.5533 160.423C17.4147 160.465 17.2873 160.538 17.1807 160.637C17.0742 160.736 16.9913 160.858 16.9386 160.993C8.16833 183.49 2.85835 206.496 1.00867 230.011C0.969235 230.52 1.0648 231.031 1.2857 231.491C1.50661 231.95 1.845 232.343 2.26661 232.629C10.2453 238.062 18.0751 243.181 25.756 247.987C31.1482 251.353 36.2897 253.89 41.1804 255.596C63.788 263.475 87.3127 262.723 109.262 253.494C113.643 251.647 118.017 249.776 122.382 247.882C145.527 237.831 168.177 227.862 190.334 217.976Z" stroke="#92BCBA" stroke-width="2"/>
<path d="M16.0569 338.433C26.4653 366.848 42.2267 393.017 63.3413 416.938C63.8899 417.557 64.5679 417.885 65.3752 417.925C73.3695 418.339 81.4854 417.885 89.7227 416.563C96.5807 415.459 103.145 413.541 109.415 410.809C140.17 397.416 170.16 384.214 199.387 371.204C212.625 365.322 228.507 358.559 242.615 357.713C258.494 356.75 272.888 359.064 285.797 364.653C324.656 381.474 363.311 398.347 401.762 415.271C411.23 419.435 421.148 421.635 431.518 421.87C432.772 421.901 433.928 421.337 434.986 420.179C459.886 392.899 478.057 361.694 489.5 326.563C489.563 326.367 489.583 326.167 489.559 325.964C489.434 325.064 488.975 324.844 488.184 325.306C473.982 333.69 457.405 341.991 441.193 343.318C431.835 344.077 422.508 343.189 413.213 340.653C407.734 339.161 401.386 336.743 395.884 334.3C363.757 320.093 329.386 304.977 292.768 288.954C280.839 283.733 269.71 280.555 259.38 279.42C249.105 278.285 239.253 278.899 229.824 281.263C223.899 282.743 216.34 285.494 207.146 289.518C175.913 303.161 147.184 315.831 120.96 327.525C112.761 331.181 105.543 333.948 99.3042 335.827C78.4797 342.105 58.0078 341.232 37.8886 333.208C28.5893 329.498 19.8307 323.463 11.4249 317.557C9.64573 316.304 9.05399 316.727 9.64965 318.825C11.4523 325.142 13.588 331.678 16.0569 338.433Z" stroke="#92BCBA" stroke-width="2"/>
<path d="M359.357 475.071C337.478 466.054 316.128 456.367 294.496 447.032C285.185 443.016 277.841 440.304 272.465 438.895C256.092 434.629 239.868 435.079 223.793 440.245C221.058 441.122 213.796 444.065 202.008 449.075C186.161 455.815 169.878 462.981 153.16 470.574C149.406 472.281 145.719 474.018 142.098 475.788C142.007 475.834 141.932 475.905 141.879 475.992C141.827 476.079 141.799 476.179 141.801 476.279C141.802 476.38 141.831 476.477 141.886 476.561C141.941 476.644 142.018 476.71 142.109 476.75C149.148 479.858 155.876 482.625 162.295 485.052C176.364 490.375 190.299 494.292 204.101 496.805C218.068 499.357 231.533 500.742 244.496 500.962C269.616 501.392 294.665 498.202 319.643 491.392C333.014 487.744 346.264 482.652 359.392 476.116C359.49 476.067 359.573 475.99 359.629 475.896C359.685 475.801 359.713 475.692 359.71 475.582C359.706 475.472 359.671 475.366 359.608 475.275C359.546 475.185 359.458 475.114 359.357 475.071Z" stroke="#92BCBA" stroke-width="2"/>
</svg>
