<?xml version="1.0" encoding="UTF-8" standalone="no"?>
<!DOCTYPE svg PUBLIC "-//W3C//DTD SVG 1.1//EN" "http://www.w3.org/Graphics/SVG/1.1/DTD/svg11.dtd">
<svg xmlns="http://www.w3.org/2000/svg" version="1.1" viewBox="0.00 0.00 532.00 523.00">
<g stroke-width="2.00" fill="none" stroke-linecap="butt">
<path stroke="#097f7a" vector-effect="non-scaling-stroke" d="
  M 321.95 96.68
  C 328.51 99.55 335.67 100.57 342.47 98.83
  Q 342.87 98.72 342.60 98.41
  Q 338.71 93.91 334.79 89.23
  Q 329.37 82.76 316.71 74.32
  Q 309.38 69.43 306.75 68.14
  Q 277.19 53.65 245.61 57.56
  Q 235.61 58.80 226.14 61.96
  Q 196.73 71.77 176.73 96.54
  Q 176.32 97.05 176.97 97.17
  Q 186.14 98.85 194.82 96.58
  Q 197.75 95.82 211.05 89.96
  Q 225.26 83.72 239.96 77.30
  Q 247.48 74.02 251.24 73.24
  Q 257.39 71.95 263.39 72.70
  Q 269.27 73.44 278.27 77.43
  Q 301.23 87.61 321.95 96.68"
/>
<path stroke="#097f7a" vector-effect="non-scaling-stroke" d="
  M 348.05 130.07
  C 347.16 130.48 346.30 130.50 345.42 131.01
  Q 344.55 131.51 343.55 131.72
  Q 332.19 134.09 322.40 129.80
  Q 297.72 119.00 273.78 108.55
  Q 264.71 104.60 254.32 105.75
  Q 248.33 106.41 237.32 111.36
  Q 217.22 120.40 202.03 127.04
  Q 183.41 135.18 167.27 126.93
  C 165.36 125.96 163.75 124.64 161.90 123.54
  Q 161.48 123.29 161.30 123.74
  Q 155.94 137.46 154.67 152.38
  A 1.37 1.36 -70.4 0 0 155.26 153.63
  Q 159.83 156.73 164.11 159.45
  Q 169.18 162.68 173.61 163.92
  Q 187.35 167.77 200.43 162.11
  Q 215.74 155.48 232.31 148.12
  Q 236.12 146.43 239.71 144.79
  Q 245.94 141.95 250.77 140.85
  Q 257.95 139.21 265.63 140.60
  Q 270.76 141.53 279.47 145.45
  Q 302.09 155.65 322.39 164.27
  Q 336.12 170.11 348.98 164.22
  Q 354.44 161.73 363.16 156.85
  Q 363.54 156.64 363.50 156.22
  Q 363.18 152.21 362.71 148.23
  Q 361.33 136.65 357.39 125.92
  A 0.39 0.39 0.0 0 0 356.84 125.71
  Q 352.51 128.01 348.05 130.07"
/>
<path stroke="#097f7a" vector-effect="non-scaling-stroke" d="
  M 335.57 232.40
  C 345.95 221.35 354.12 207.32 358.66 192.85
  Q 358.91 192.05 358.18 192.46
  Q 353.00 195.40 348.09 197.54
  Q 339.34 201.35 329.58 199.49
  Q 325.17 198.65 319.23 196.01
  Q 296.68 186.01 275.53 176.79
  Q 271.45 175.01 267.20 173.96
  Q 262.53 172.80 257.04 173.00
  Q 250.98 173.23 244.78 175.75
  Q 239.16 178.04 233.33 180.68
  Q 223.51 185.12 212.33 189.92
  C 206.91 192.24 201.48 195.17 196.00 196.79
  Q 181.15 201.17 167.70 194.70
  C 164.62 193.22 161.69 190.86 158.66 188.98
  Q 158.02 188.59 158.22 189.31
  Q 164.63 212.54 180.71 230.67
  A 1.20 1.19 71.1 0 0 181.54 231.08
  Q 186.51 231.35 191.48 230.61
  Q 195.60 229.99 199.93 228.11
  Q 218.80 219.92 236.57 211.94
  Q 248.19 206.72 253.84 206.03
  Q 264.41 204.73 274.00 208.90
  Q 297.49 219.12 321.78 229.82
  Q 328.35 232.71 334.72 232.76
  Q 335.23 232.77 335.57 232.40"
/>
<path stroke="#097f7a" vector-effect="non-scaling-stroke" d="
  M 298.60 252.69
  Q 286.37 247.19 273.18 241.64
  Q 258.88 235.62 244.12 241.81
  Q 228.90 248.20 213.48 255.32
  A 0.17 0.17 0.0 0 0 213.48 255.62
  Q 246.30 271.06 282.13 263.24
  Q 293.95 260.66 304.31 255.44
  A 0.23 0.23 0.0 0 0 304.29 255.02
  Q 301.51 254.00 298.60 252.69"
/>
<path stroke="#097f7a" vector-effect="non-scaling-stroke" d="
  M 98.24 370.50
  Q 96.35 356.37 98.83 342.70
  C 99.29 340.14 100.17 337.57 101.12 335.16
  C 103.93 328.07 109.05 322.85 116.40 320.79
  Q 127.01 317.83 136.78 321.33
  C 142.83 323.51 146.28 327.96 149.39 333.28
  Q 149.54 333.54 149.81 333.38
  L 156.90 328.99
  Q 157.11 328.86 156.98 328.64
  Q 153.93 323.85 152.21 321.83
  Q 146.48 315.11 138.01 313.01
  C 128.74 310.71 116.65 310.71 107.93 315.20
  Q 103.90 317.27 102.74 318.22
  Q 96.17 323.58 93.14 330.52
  Q 89.82 338.12 88.82 347.77
  Q 87.33 362.14 89.80 375.66
  C 90.56 379.79 91.97 383.71 93.79 387.43
  Q 97.40 394.82 103.82 399.25
  Q 109.35 403.05 117.83 404.51
  Q 128.18 406.28 138.45 403.76
  Q 144.98 402.16 150.79 397.23
  C 153.69 394.78 155.29 391.61 157.60 388.72
  Q 158.69 387.36 157.14 386.56
  Q 154.44 385.16 152.11 383.55
  Q 150.60 382.51 149.85 384.19
  Q 148.90 386.32 147.02 388.48
  C 139.96 396.64 130.34 398.30 120.08 396.80
  Q 113.12 395.78 108.40 391.79
  C 102.03 386.42 99.33 378.64 98.24 370.50"
/>
<path stroke="#097f7a" vector-effect="non-scaling-stroke" d="
  M 186.38 352.78
  A 0.40 0.40 0.0 0 1 185.98 352.38
  L 185.97 313.77
  A 0.40 0.40 0.0 0 0 185.57 313.37
  L 177.66 313.38
  A 0.40 0.40 0.0 0 0 177.26 313.78
  L 177.27 403.08
  A 0.40 0.40 0.0 0 0 177.67 403.48
  L 185.60 403.49
  A 0.40 0.40 0.0 0 0 186.00 403.09
  L 185.96 361.13
  A 0.40 0.40 0.0 0 1 186.36 360.73
  L 229.47 360.76
  A 0.40 0.40 0.0 0 1 229.87 361.16
  L 229.85 403.09
  A 0.40 0.40 0.0 0 0 230.25 403.49
  L 238.25 403.50
  A 0.40 0.40 0.0 0 0 238.65 403.10
  L 238.64 313.72
  A 0.40 0.40 0.0 0 0 238.24 313.32
  L 230.26 313.38
  A 0.40 0.40 0.0 0 0 229.86 313.78
  L 229.86 352.34
  A 0.40 0.40 0.0 0 1 229.46 352.74
  L 186.38 352.78"
/>
<path stroke="#097f7a" vector-effect="non-scaling-stroke" d="
  M 279.26 321.38
  A 0.37 0.37 0.0 0 1 279.63 321.01
  L 291.30 321.01
  A 0.37 0.37 0.0 0 0 291.67 320.64
  L 291.66 313.73
  A 0.37 0.37 0.0 0 0 291.29 313.36
  L 258.56 313.37
  A 0.37 0.37 0.0 0 0 258.19 313.74
  L 258.10 320.62
  A 0.37 0.37 0.0 0 0 258.47 320.99
  L 270.12 321.03
  A 0.37 0.37 0.0 0 1 270.49 321.40
  L 270.49 395.36
  A 0.37 0.37 0.0 0 1 270.12 395.73
  L 258.56 395.76
  A 0.37 0.37 0.0 0 0 258.19 396.13
  L 258.12 403.15
  A 0.37 0.37 0.0 0 0 258.49 403.52
  L 291.25 403.51
  A 0.37 0.37 0.0 0 0 291.62 403.15
  L 291.72 396.08
  A 0.37 0.37 0.0 0 0 291.35 395.70
  L 279.63 395.77
  A 0.37 0.37 0.0 0 1 279.26 395.40
  L 279.26 321.38"
/>
<path stroke="#097f7a" vector-effect="non-scaling-stroke" d="
  M 320.44 395.50
  A 0.30 0.30 0.0 0 1 320.14 395.20
  L 320.16 313.61
  A 0.30 0.30 0.0 0 0 319.86 313.31
  L 311.54 313.34
  A 0.30 0.30 0.0 0 0 311.24 313.64
  L 311.24 403.21
  A 0.30 0.30 0.0 0 0 311.54 403.51
  L 362.07 403.52
  A 0.30 0.30 0.0 0 0 362.37 403.22
  L 362.47 395.78
  A 0.30 0.30 0.0 0 0 362.17 395.48
  L 320.44 395.50"
/>
<path stroke="#097f7a" vector-effect="non-scaling-stroke" d="
  M 388.00 395.49
  A 0.34 0.34 0.0 0 1 387.66 395.15
  L 387.71 313.64
  A 0.34 0.34 0.0 0 0 387.37 313.30
  L 379.14 313.35
  A 0.34 0.34 0.0 0 0 378.80 313.69
  L 378.82 403.17
  A 0.34 0.34 0.0 0 0 379.16 403.51
  L 429.69 403.53
  A 0.34 0.34 0.0 0 0 430.03 403.19
  L 429.92 395.83
  A 0.34 0.34 0.0 0 0 429.58 395.49
  L 388.00 395.49"
/>
<path stroke="#097f7a" vector-effect="non-scaling-stroke" d="
  M 140.11 468.03
  A 0.41 0.41 0.0 0 1 139.70 467.62
  L 139.71 448.54
  A 0.41 0.41 0.0 0 1 140.12 448.13
  L 160.47 448.14
  A 0.41 0.41 0.0 0 0 160.88 447.73
  L 160.87 444.17
  A 0.41 0.41 0.0 0 0 160.46 443.76
  L 140.10 443.79
  A 0.41 0.41 0.0 0 1 139.69 443.38
  L 139.71 427.23
  A 0.41 0.41 0.0 0 1 140.12 426.82
  L 163.90 426.91
  A 0.41 0.41 0.0 0 0 164.32 426.51
  L 164.46 422.76
  A 0.41 0.41 0.0 0 0 164.05 422.33
  L 135.38 422.40
  A 0.41 0.41 0.0 0 0 134.97 422.81
  L 134.86 471.88
  A 0.41 0.41 0.0 0 0 135.27 472.29
  L 163.93 472.34
  A 0.41 0.41 0.0 0 0 164.34 471.93
  L 164.38 468.43
  A 0.41 0.41 0.0 0 0 163.97 468.02
  L 140.11 468.03"
/>
<path stroke="#097f7a" vector-effect="non-scaling-stroke" d="
  M 181.81 443.55
  A 0.52 0.52 0.0 0 1 181.29 443.03
  L 181.35 427.38
  A 0.52 0.52 0.0 0 1 181.87 426.86
  L 205.39 426.96
  A 0.52 0.52 0.0 0 0 205.91 426.44
  L 205.94 422.82
  A 0.52 0.52 0.0 0 0 205.42 422.30
  L 177.03 422.36
  A 0.52 0.52 0.0 0 0 176.51 422.88
  L 176.53 471.83
  A 0.52 0.52 0.0 0 0 177.05 472.35
  L 180.83 472.38
  A 0.52 0.52 0.0 0 0 181.35 471.86
  L 181.34 448.33
  A 0.52 0.52 0.0 0 1 181.86 447.81
  L 201.68 447.94
  A 0.52 0.52 0.0 0 0 202.20 447.43
  L 202.30 444.00
  A 0.52 0.52 0.0 0 0 201.78 443.46
  L 181.81 443.55"
/>
<path stroke="#097f7a" vector-effect="non-scaling-stroke" d="
  M 221.91 468.00
  A 0.41 0.41 0.0 0 1 221.50 467.59
  L 221.48 448.52
  A 0.41 0.41 0.0 0 1 221.89 448.11
  L 242.34 448.20
  A 0.41 0.41 0.0 0 0 242.75 447.79
  L 242.78 444.14
  A 0.41 0.41 0.0 0 0 242.37 443.73
  L 221.90 443.75
  A 0.41 0.41 0.0 0 1 221.49 443.34
  L 221.48 427.27
  A 0.41 0.41 0.0 0 1 221.89 426.86
  L 245.68 427.01
  A 0.41 0.41 0.0 0 0 246.09 426.62
  L 246.27 422.65
  A 0.41 0.41 0.0 0 0 245.86 422.22
  L 217.09 422.40
  A 0.41 0.41 0.0 0 0 216.68 422.81
  L 216.64 471.96
  A 0.41 0.41 0.0 0 0 217.05 472.37
  L 245.67 472.37
  A 0.41 0.41 0.0 0 0 246.08 471.97
  L 246.19 468.42
  A 0.41 0.41 0.0 0 0 245.78 468.00
  L 221.91 468.00"
/>
<path stroke="#097f7a" vector-effect="non-scaling-stroke" d="
  M 289.07 422.33
  A 0.33 0.33 0.0 0 0 288.74 422.66
  L 288.76 463.25
  A 0.33 0.33 0.0 0 1 288.14 463.41
  L 265.42 422.50
  A 0.33 0.33 0.0 0 0 265.12 422.33
  L 258.58 422.41
  A 0.33 0.33 0.0 0 0 258.25 422.74
  L 258.24 472.11
  A 0.33 0.33 0.0 0 0 258.57 472.44
  L 262.68 472.38
  A 0.33 0.33 0.0 0 0 263.01 472.05
  L 263.01 429.02
  A 0.33 0.33 0.0 0 1 263.63 428.86
  L 287.66 472.21
  A 0.33 0.33 0.0 0 0 287.94 472.38
  L 293.33 472.40
  A 0.33 0.33 0.0 0 0 293.66 472.07
  L 293.61 422.68
  A 0.33 0.33 0.0 0 0 293.28 422.35
  L 289.07 422.33"
/>
<path stroke="#097f7a" vector-effect="non-scaling-stroke" d="
  M 307.35 422.67
  L 307.61 472.21
  A 0.25 0.25 0.0 0 0 307.86 472.46
  L 322.38 472.38
  A 19.93 19.81 89.7 0 0 342.09 452.35
  L 342.03 442.17
  A 19.93 19.81 89.7 0 0 322.12 422.34
  L 307.60 422.42
  A 0.25 0.25 0.0 0 0 307.35 422.67"
/>
<path stroke="#097f7a" vector-effect="non-scaling-stroke" d="
  M 359.50 443.77
  A 0.41 0.41 0.0 0 1 359.09 443.36
  L 359.19 427.31
  A 0.41 0.41 0.0 0 1 359.60 426.90
  L 383.32 427.01
  A 0.41 0.41 0.0 0 0 383.74 426.61
  L 383.80 422.63
  A 0.41 0.41 0.0 0 0 383.39 422.21
  L 354.65 422.36
  A 0.41 0.41 0.0 0 0 354.24 422.77
  L 354.24 471.96
  A 0.41 0.41 0.0 0 0 354.65 472.37
  L 383.34 472.39
  A 0.41 0.41 0.0 0 0 383.75 471.98
  L 383.78 468.40
  A 0.41 0.41 0.0 0 0 383.37 467.99
  L 359.53 467.98
  A 0.41 0.41 0.0 0 1 359.12 467.57
  L 359.13 448.59
  A 0.41 0.41 0.0 0 1 359.54 448.18
  L 379.97 448.24
  A 0.41 0.41 0.0 0 0 380.39 447.83
  L 380.43 444.11
  A 0.41 0.41 0.0 0 0 380.02 443.69
  L 359.50 443.77"
/>
<path stroke="#097f7a" vector-effect="non-scaling-stroke" d="
  M 416.91 450.24
  C 425.42 448.52 427.93 440.61 426.62 432.92
  C 424.97 423.19 416.47 422.23 407.66 422.31
  Q 401.62 422.37 396.54 422.33
  Q 395.87 422.32 395.87 423.00
  L 395.78 472.25
  Q 395.78 472.46 396.00 472.46
  L 400.41 472.35
  Q 400.76 472.35 400.76 472.00
  L 400.77 451.75
  A 0.49 0.48 -90.0 0 1 401.25 451.26
  L 410.73 451.26
  A 0.94 0.93 -15.3 0 1 411.53 451.71
  L 423.97 472.30
  Q 424.07 472.46 424.26 472.46
  L 429.71 472.39
  A 0.15 0.15 0.0 0 0 429.83 472.16
  L 416.62 450.92
  Q 416.27 450.37 416.91 450.24"
/>
<path stroke="#097f7a" vector-effect="non-scaling-stroke" d="
  M 88.25 423.27
  L 88.26 471.78
  Q 88.26 472.35 88.84 472.34
  Q 95.80 472.23 102.50 472.10
  Q 117.26 471.84 120.98 460.01
  C 123.29 452.68 123.20 443.53 121.36 435.96
  C 119.68 429.06 114.37 424.26 107.35 423.24
  Q 99.91 422.16 88.81 422.68
  Q 88.25 422.71 88.25 423.27"
/>
<path stroke="#097f7a" vector-effect="non-scaling-stroke" d="
  M 312.36 427.12
  L 312.36 467.68
  A 0.29 0.29 0.0 0 0 312.65 467.97
  L 321.44 467.97
  A 15.65 15.30 -90.0 0 0 336.74 452.32
  L 336.74 442.48
  A 15.65 15.30 90.0 0 0 321.44 426.83
  L 312.65 426.83
  A 0.29 0.29 0.0 0 0 312.36 427.12"
/>
<path stroke="#097f7a" vector-effect="non-scaling-stroke" d="
  M 400.75 427.28
  L 400.75 446.34
  A 0.47 0.47 0.0 0 0 401.22 446.81
  L 412.63 446.81
  A 8.96 8.11 0.0 0 0 421.59 438.70
  L 421.59 434.92
  A 8.96 8.11 0.0 0 0 412.63 426.81
  L 401.22 426.81
  A 0.47 0.47 0.0 0 0 400.75 427.28"
/>
<path stroke="#097f7a" vector-effect="non-scaling-stroke" d="
  M 92.82 426.89
  L 93.04 467.87
  A 0.24 0.24 0.0 0 0 93.28 468.11
  L 101.77 468.07
  A 15.84 15.81 89.7 0 0 117.50 452.15
  L 117.44 442.37
  A 15.84 15.81 89.7 0 0 101.55 426.61
  L 93.06 426.65
  A 0.24 0.24 0.0 0 0 92.82 426.89"
/>
</g>
<path fill="#123c3a" d="
  M 0.00 0.00
  L 532.00 0.00
  L 532.00 523.00
  L 0.00 523.00
  L 0.00 0.00
  Z
  M 321.95 96.68
  C 328.51 99.55 335.67 100.57 342.47 98.83
  Q 342.87 98.72 342.60 98.41
  Q 338.71 93.91 334.79 89.23
  Q 329.37 82.76 316.71 74.32
  Q 309.38 69.43 306.75 68.14
  Q 277.19 53.65 245.61 57.56
  Q 235.61 58.80 226.14 61.96
  Q 196.73 71.77 176.73 96.54
  Q 176.32 97.05 176.97 97.17
  Q 186.14 98.85 194.82 96.58
  Q 197.75 95.82 211.05 89.96
  Q 225.26 83.72 239.96 77.30
  Q 247.48 74.02 251.24 73.24
  Q 257.39 71.95 263.39 72.70
  Q 269.27 73.44 278.27 77.43
  Q 301.23 87.61 321.95 96.68
  Z
  M 348.05 130.07
  C 347.16 130.48 346.30 130.50 345.42 131.01
  Q 344.55 131.51 343.55 131.72
  Q 332.19 134.09 322.40 129.80
  Q 297.72 119.00 273.78 108.55
  Q 264.71 104.60 254.32 105.75
  Q 248.33 106.41 237.32 111.36
  Q 217.22 120.40 202.03 127.04
  Q 183.41 135.18 167.27 126.93
  C 165.36 125.96 163.75 124.64 161.90 123.54
  Q 161.48 123.29 161.30 123.74
  Q 155.94 137.46 154.67 152.38
  A 1.37 1.36 -70.4 0 0 155.26 153.63
  Q 159.83 156.73 164.11 159.45
  Q 169.18 162.68 173.61 163.92
  Q 187.35 167.77 200.43 162.11
  Q 215.74 155.48 232.31 148.12
  Q 236.12 146.43 239.71 144.79
  Q 245.94 141.95 250.77 140.85
  Q 257.95 139.21 265.63 140.60
  Q 270.76 141.53 279.47 145.45
  Q 302.09 155.65 322.39 164.27
  Q 336.12 170.11 348.98 164.22
  Q 354.44 161.73 363.16 156.85
  Q 363.54 156.64 363.50 156.22
  Q 363.18 152.21 362.71 148.23
  Q 361.33 136.65 357.39 125.92
  A 0.39 0.39 0.0 0 0 356.84 125.71
  Q 352.51 128.01 348.05 130.07
  Z
  M 335.57 232.40
  C 345.95 221.35 354.12 207.32 358.66 192.85
  Q 358.91 192.05 358.18 192.46
  Q 353.00 195.40 348.09 197.54
  Q 339.34 201.35 329.58 199.49
  Q 325.17 198.65 319.23 196.01
  Q 296.68 186.01 275.53 176.79
  Q 271.45 175.01 267.20 173.96
  Q 262.53 172.80 257.04 173.00
  Q 250.98 173.23 244.78 175.75
  Q 239.16 178.04 233.33 180.68
  Q 223.51 185.12 212.33 189.92
  C 206.91 192.24 201.48 195.17 196.00 196.79
  Q 181.15 201.17 167.70 194.70
  C 164.62 193.22 161.69 190.86 158.66 188.98
  Q 158.02 188.59 158.22 189.31
  Q 164.63 212.54 180.71 230.67
  A 1.20 1.19 71.1 0 0 181.54 231.08
  Q 186.51 231.35 191.48 230.61
  Q 195.60 229.99 199.93 228.11
  Q 218.80 219.92 236.57 211.94
  Q 248.19 206.72 253.84 206.03
  Q 264.41 204.73 274.00 208.90
  Q 297.49 219.12 321.78 229.82
  Q 328.35 232.71 334.72 232.76
  Q 335.23 232.77 335.57 232.40
  Z
  M 298.60 252.69
  Q 286.37 247.19 273.18 241.64
  Q 258.88 235.62 244.12 241.81
  Q 228.90 248.20 213.48 255.32
  A 0.17 0.17 0.0 0 0 213.48 255.62
  Q 246.30 271.06 282.13 263.24
  Q 293.95 260.66 304.31 255.44
  A 0.23 0.23 0.0 0 0 304.29 255.02
  Q 301.51 254.00 298.60 252.69
  Z
  M 98.24 370.50
  Q 96.35 356.37 98.83 342.70
  C 99.29 340.14 100.17 337.57 101.12 335.16
  C 103.93 328.07 109.05 322.85 116.40 320.79
  Q 127.01 317.83 136.78 321.33
  C 142.83 323.51 146.28 327.96 149.39 333.28
  Q 149.54 333.54 149.81 333.38
  L 156.90 328.99
  Q 157.11 328.86 156.98 328.64
  Q 153.93 323.85 152.21 321.83
  Q 146.48 315.11 138.01 313.01
  C 128.74 310.71 116.65 310.71 107.93 315.20
  Q 103.90 317.27 102.74 318.22
  Q 96.17 323.58 93.14 330.52
  Q 89.82 338.12 88.82 347.77
  Q 87.33 362.14 89.80 375.66
  C 90.56 379.79 91.97 383.71 93.79 387.43
  Q 97.40 394.82 103.82 399.25
  Q 109.35 403.05 117.83 404.51
  Q 128.18 406.28 138.45 403.76
  Q 144.98 402.16 150.79 397.23
  C 153.69 394.78 155.29 391.61 157.60 388.72
  Q 158.69 387.36 157.14 386.56
  Q 154.44 385.16 152.11 383.55
  Q 150.60 382.51 149.85 384.19
  Q 148.90 386.32 147.02 388.48
  C 139.96 396.64 130.34 398.30 120.08 396.80
  Q 113.12 395.78 108.40 391.79
  C 102.03 386.42 99.33 378.64 98.24 370.50
  Z
  M 186.38 352.78
  A 0.40 0.40 0.0 0 1 185.98 352.38
  L 185.97 313.77
  A 0.40 0.40 0.0 0 0 185.57 313.37
  L 177.66 313.38
  A 0.40 0.40 0.0 0 0 177.26 313.78
  L 177.27 403.08
  A 0.40 0.40 0.0 0 0 177.67 403.48
  L 185.60 403.49
  A 0.40 0.40 0.0 0 0 186.00 403.09
  L 185.96 361.13
  A 0.40 0.40 0.0 0 1 186.36 360.73
  L 229.47 360.76
  A 0.40 0.40 0.0 0 1 229.87 361.16
  L 229.85 403.09
  A 0.40 0.40 0.0 0 0 230.25 403.49
  L 238.25 403.50
  A 0.40 0.40 0.0 0 0 238.65 403.10
  L 238.64 313.72
  A 0.40 0.40 0.0 0 0 238.24 313.32
  L 230.26 313.38
  A 0.40 0.40 0.0 0 0 229.86 313.78
  L 229.86 352.34
  A 0.40 0.40 0.0 0 1 229.46 352.74
  L 186.38 352.78
  Z
  M 279.26 321.38
  A 0.37 0.37 0.0 0 1 279.63 321.01
  L 291.30 321.01
  A 0.37 0.37 0.0 0 0 291.67 320.64
  L 291.66 313.73
  A 0.37 0.37 0.0 0 0 291.29 313.36
  L 258.56 313.37
  A 0.37 0.37 0.0 0 0 258.19 313.74
  L 258.10 320.62
  A 0.37 0.37 0.0 0 0 258.47 320.99
  L 270.12 321.03
  A 0.37 0.37 0.0 0 1 270.49 321.40
  L 270.49 395.36
  A 0.37 0.37 0.0 0 1 270.12 395.73
  L 258.56 395.76
  A 0.37 0.37 0.0 0 0 258.19 396.13
  L 258.12 403.15
  A 0.37 0.37 0.0 0 0 258.49 403.52
  L 291.25 403.51
  A 0.37 0.37 0.0 0 0 291.62 403.15
  L 291.72 396.08
  A 0.37 0.37 0.0 0 0 291.35 395.70
  L 279.63 395.77
  A 0.37 0.37 0.0 0 1 279.26 395.40
  L 279.26 321.38
  Z
  M 320.44 395.50
  A 0.30 0.30 0.0 0 1 320.14 395.20
  L 320.16 313.61
  A 0.30 0.30 0.0 0 0 319.86 313.31
  L 311.54 313.34
  A 0.30 0.30 0.0 0 0 311.24 313.64
  L 311.24 403.21
  A 0.30 0.30 0.0 0 0 311.54 403.51
  L 362.07 403.52
  A 0.30 0.30 0.0 0 0 362.37 403.22
  L 362.47 395.78
  A 0.30 0.30 0.0 0 0 362.17 395.48
  L 320.44 395.50
  Z
  M 388.00 395.49
  A 0.34 0.34 0.0 0 1 387.66 395.15
  L 387.71 313.64
  A 0.34 0.34 0.0 0 0 387.37 313.30
  L 379.14 313.35
  A 0.34 0.34 0.0 0 0 378.80 313.69
  L 378.82 403.17
  A 0.34 0.34 0.0 0 0 379.16 403.51
  L 429.69 403.53
  A 0.34 0.34 0.0 0 0 430.03 403.19
  L 429.92 395.83
  A 0.34 0.34 0.0 0 0 429.58 395.49
  L 388.00 395.49
  Z
  M 140.11 468.03
  A 0.41 0.41 0.0 0 1 139.70 467.62
  L 139.71 448.54
  A 0.41 0.41 0.0 0 1 140.12 448.13
  L 160.47 448.14
  A 0.41 0.41 0.0 0 0 160.88 447.73
  L 160.87 444.17
  A 0.41 0.41 0.0 0 0 160.46 443.76
  L 140.10 443.79
  A 0.41 0.41 0.0 0 1 139.69 443.38
  L 139.71 427.23
  A 0.41 0.41 0.0 0 1 140.12 426.82
  L 163.90 426.91
  A 0.41 0.41 0.0 0 0 164.32 426.51
  L 164.46 422.76
  A 0.41 0.41 0.0 0 0 164.05 422.33
  L 135.38 422.40
  A 0.41 0.41 0.0 0 0 134.97 422.81
  L 134.86 471.88
  A 0.41 0.41 0.0 0 0 135.27 472.29
  L 163.93 472.34
  A 0.41 0.41 0.0 0 0 164.34 471.93
  L 164.38 468.43
  A 0.41 0.41 0.0 0 0 163.97 468.02
  L 140.11 468.03
  Z
  M 181.81 443.55
  A 0.52 0.52 0.0 0 1 181.29 443.03
  L 181.35 427.38
  A 0.52 0.52 0.0 0 1 181.87 426.86
  L 205.39 426.96
  A 0.52 0.52 0.0 0 0 205.91 426.44
  L 205.94 422.82
  A 0.52 0.52 0.0 0 0 205.42 422.30
  L 177.03 422.36
  A 0.52 0.52 0.0 0 0 176.51 422.88
  L 176.53 471.83
  A 0.52 0.52 0.0 0 0 177.05 472.35
  L 180.83 472.38
  A 0.52 0.52 0.0 0 0 181.35 471.86
  L 181.34 448.33
  A 0.52 0.52 0.0 0 1 181.86 447.81
  L 201.68 447.94
  A 0.52 0.52 0.0 0 0 202.20 447.43
  L 202.30 444.00
  A 0.52 0.52 0.0 0 0 201.78 443.46
  L 181.81 443.55
  Z
  M 221.91 468.00
  A 0.41 0.41 0.0 0 1 221.50 467.59
  L 221.48 448.52
  A 0.41 0.41 0.0 0 1 221.89 448.11
  L 242.34 448.20
  A 0.41 0.41 0.0 0 0 242.75 447.79
  L 242.78 444.14
  A 0.41 0.41 0.0 0 0 242.37 443.73
  L 221.90 443.75
  A 0.41 0.41 0.0 0 1 221.49 443.34
  L 221.48 427.27
  A 0.41 0.41 0.0 0 1 221.89 426.86
  L 245.68 427.01
  A 0.41 0.41 0.0 0 0 246.09 426.62
  L 246.27 422.65
  A 0.41 0.41 0.0 0 0 245.86 422.22
  L 217.09 422.40
  A 0.41 0.41 0.0 0 0 216.68 422.81
  L 216.64 471.96
  A 0.41 0.41 0.0 0 0 217.05 472.37
  L 245.67 472.37
  A 0.41 0.41 0.0 0 0 246.08 471.97
  L 246.19 468.42
  A 0.41 0.41 0.0 0 0 245.78 468.00
  L 221.91 468.00
  Z
  M 289.07 422.33
  A 0.33 0.33 0.0 0 0 288.74 422.66
  L 288.76 463.25
  A 0.33 0.33 0.0 0 1 288.14 463.41
  L 265.42 422.50
  A 0.33 0.33 0.0 0 0 265.12 422.33
  L 258.58 422.41
  A 0.33 0.33 0.0 0 0 258.25 422.74
  L 258.24 472.11
  A 0.33 0.33 0.0 0 0 258.57 472.44
  L 262.68 472.38
  A 0.33 0.33 0.0 0 0 263.01 472.05
  L 263.01 429.02
  A 0.33 0.33 0.0 0 1 263.63 428.86
  L 287.66 472.21
  A 0.33 0.33 0.0 0 0 287.94 472.38
  L 293.33 472.40
  A 0.33 0.33 0.0 0 0 293.66 472.07
  L 293.61 422.68
  A 0.33 0.33 0.0 0 0 293.28 422.35
  L 289.07 422.33
  Z
  M 307.35 422.67
  L 307.61 472.21
  A 0.25 0.25 0.0 0 0 307.86 472.46
  L 322.38 472.38
  A 19.93 19.81 89.7 0 0 342.09 452.35
  L 342.03 442.17
  A 19.93 19.81 89.7 0 0 322.12 422.34
  L 307.60 422.42
  A 0.25 0.25 0.0 0 0 307.35 422.67
  Z
  M 359.50 443.77
  A 0.41 0.41 0.0 0 1 359.09 443.36
  L 359.19 427.31
  A 0.41 0.41 0.0 0 1 359.60 426.90
  L 383.32 427.01
  A 0.41 0.41 0.0 0 0 383.74 426.61
  L 383.80 422.63
  A 0.41 0.41 0.0 0 0 383.39 422.21
  L 354.65 422.36
  A 0.41 0.41 0.0 0 0 354.24 422.77
  L 354.24 471.96
  A 0.41 0.41 0.0 0 0 354.65 472.37
  L 383.34 472.39
  A 0.41 0.41 0.0 0 0 383.75 471.98
  L 383.78 468.40
  A 0.41 0.41 0.0 0 0 383.37 467.99
  L 359.53 467.98
  A 0.41 0.41 0.0 0 1 359.12 467.57
  L 359.13 448.59
  A 0.41 0.41 0.0 0 1 359.54 448.18
  L 379.97 448.24
  A 0.41 0.41 0.0 0 0 380.39 447.83
  L 380.43 444.11
  A 0.41 0.41 0.0 0 0 380.02 443.69
  L 359.50 443.77
  Z
  M 416.91 450.24
  C 425.42 448.52 427.93 440.61 426.62 432.92
  C 424.97 423.19 416.47 422.23 407.66 422.31
  Q 401.62 422.37 396.54 422.33
  Q 395.87 422.32 395.87 423.00
  L 395.78 472.25
  Q 395.78 472.46 396.00 472.46
  L 400.41 472.35
  Q 400.76 472.35 400.76 472.00
  L 400.77 451.75
  A 0.49 0.48 -90.0 0 1 401.25 451.26
  L 410.73 451.26
  A 0.94 0.93 -15.3 0 1 411.53 451.71
  L 423.97 472.30
  Q 424.07 472.46 424.26 472.46
  L 429.71 472.39
  A 0.15 0.15 0.0 0 0 429.83 472.16
  L 416.62 450.92
  Q 416.27 450.37 416.91 450.24
  Z
  M 88.25 423.27
  L 88.26 471.78
  Q 88.26 472.35 88.84 472.34
  Q 95.80 472.23 102.50 472.10
  Q 117.26 471.84 120.98 460.01
  C 123.29 452.68 123.20 443.53 121.36 435.96
  C 119.68 429.06 114.37 424.26 107.35 423.24
  Q 99.91 422.16 88.81 422.68
  Q 88.25 422.71 88.25 423.27
  Z"
/>
<path fill="#00c2ba" d="
  M 342.47 98.83
  C 335.67 100.57 328.51 99.55 321.95 96.68
  Q 301.23 87.61 278.27 77.43
  Q 269.27 73.44 263.39 72.70
  Q 257.39 71.95 251.24 73.24
  Q 247.48 74.02 239.96 77.30
  Q 225.26 83.72 211.05 89.96
  Q 197.75 95.82 194.82 96.58
  Q 186.14 98.85 176.97 97.17
  Q 176.32 97.05 176.73 96.54
  Q 196.73 71.77 226.14 61.96
  Q 235.61 58.80 245.61 57.56
  Q 277.19 53.65 306.75 68.14
  Q 309.38 69.43 316.71 74.32
  Q 329.37 82.76 334.79 89.23
  Q 338.71 93.91 342.60 98.41
  Q 342.87 98.72 342.47 98.83
  Z"
/>
<path fill="#00c2ba" d="
  M 348.05 130.07
  Q 352.51 128.01 356.84 125.71
  A 0.39 0.39 0.0 0 1 357.39 125.92
  Q 361.33 136.65 362.71 148.23
  Q 363.18 152.21 363.50 156.22
  Q 363.54 156.64 363.16 156.85
  Q 354.44 161.73 348.98 164.22
  Q 336.12 170.11 322.39 164.27
  Q 302.09 155.65 279.47 145.45
  Q 270.76 141.53 265.63 140.60
  Q 257.95 139.21 250.77 140.85
  Q 245.94 141.95 239.71 144.79
  Q 236.12 146.43 232.31 148.12
  Q 215.74 155.48 200.43 162.11
  Q 187.35 167.77 173.61 163.92
  Q 169.18 162.68 164.11 159.45
  Q 159.83 156.73 155.26 153.63
  A 1.37 1.36 -70.4 0 1 154.67 152.38
  Q 155.94 137.46 161.30 123.74
  Q 161.48 123.29 161.90 123.54
  C 163.75 124.64 165.36 125.96 167.27 126.93
  Q 183.41 135.18 202.03 127.04
  Q 217.22 120.40 237.32 111.36
  Q 248.33 106.41 254.32 105.75
  Q 264.71 104.60 273.78 108.55
  Q 297.72 119.00 322.40 129.80
  Q 332.19 134.09 343.55 131.72
  Q 344.55 131.51 345.42 131.01
  C 346.30 130.50 347.16 130.48 348.05 130.07
  Z"
/>
<path fill="#00c2ba" d="
  M 358.66 192.85
  C 354.12 207.32 345.95 221.35 335.57 232.40
  Q 335.23 232.77 334.72 232.76
  Q 328.35 232.71 321.78 229.82
  Q 297.49 219.12 274.00 208.90
  Q 264.41 204.73 253.84 206.03
  Q 248.19 206.72 236.57 211.94
  Q 218.80 219.92 199.93 228.11
  Q 195.60 229.99 191.48 230.61
  Q 186.51 231.35 181.54 231.08
  A 1.20 1.19 71.1 0 1 180.71 230.67
  Q 164.63 212.54 158.22 189.31
  Q 158.02 188.59 158.66 188.98
  C 161.69 190.86 164.62 193.22 167.70 194.70
  Q 181.15 201.17 196.00 196.79
  C 201.48 195.17 206.91 192.24 212.33 189.92
  Q 223.51 185.12 233.33 180.68
  Q 239.16 178.04 244.78 175.75
  Q 250.98 173.23 257.04 173.00
  Q 262.53 172.80 267.20 173.96
  Q 271.45 175.01 275.53 176.79
  Q 296.68 186.01 319.23 196.01
  Q 325.17 198.65 329.58 199.49
  Q 339.34 201.35 348.09 197.54
  Q 353.00 195.40 358.18 192.46
  Q 358.91 192.05 358.66 192.85
  Z"
/>
<path fill="#00c2ba" d="
  M 298.60 252.69
  Q 301.51 254.00 304.29 255.02
  A 0.23 0.23 0.0 0 1 304.31 255.44
  Q 293.95 260.66 282.13 263.24
  Q 246.30 271.06 213.48 255.62
  A 0.17 0.17 0.0 0 1 213.48 255.32
  Q 228.90 248.20 244.12 241.81
  Q 258.88 235.62 273.18 241.64
  Q 286.37 247.19 298.60 252.69
  Z"
/>
<path fill="#00c2ba" d="
  M 98.24 370.50
  C 99.33 378.64 102.03 386.42 108.40 391.79
  Q 113.12 395.78 120.08 396.80
  C 130.34 398.30 139.96 396.64 147.02 388.48
  Q 148.90 386.32 149.85 384.19
  Q 150.60 382.51 152.11 383.55
  Q 154.44 385.16 157.14 386.56
  Q 158.69 387.36 157.60 388.72
  C 155.29 391.61 153.69 394.78 150.79 397.23
  Q 144.98 402.16 138.45 403.76
  Q 128.18 406.28 117.83 404.51
  Q 109.35 403.05 103.82 399.25
  Q 97.40 394.82 93.79 387.43
  C 91.97 383.71 90.56 379.79 89.80 375.66
  Q 87.33 362.14 88.82 347.77
  Q 89.82 338.12 93.14 330.52
  Q 96.17 323.58 102.74 318.22
  Q 103.90 317.27 107.93 315.20
  C 116.65 310.71 128.74 310.71 138.01 313.01
  Q 146.48 315.11 152.21 321.83
  Q 153.93 323.85 156.98 328.64
  Q 157.11 328.86 156.90 328.99
  L 149.81 333.38
  Q 149.54 333.54 149.39 333.28
  C 146.28 327.96 142.83 323.51 136.78 321.33
  Q 127.01 317.83 116.40 320.79
  C 109.05 322.85 103.93 328.07 101.12 335.16
  C 100.17 337.57 99.29 340.14 98.83 342.70
  Q 96.35 356.37 98.24 370.50
  Z"
/>
<path fill="#00c2ba" d="
  M 186.38 352.78
  L 229.46 352.74
  A 0.40 0.40 0.0 0 0 229.86 352.34
  L 229.86 313.78
  A 0.40 0.40 0.0 0 1 230.26 313.38
  L 238.24 313.32
  A 0.40 0.40 0.0 0 1 238.64 313.72
  L 238.65 403.10
  A 0.40 0.40 0.0 0 1 238.25 403.50
  L 230.25 403.49
  A 0.40 0.40 0.0 0 1 229.85 403.09
  L 229.87 361.16
  A 0.40 0.40 0.0 0 0 229.47 360.76
  L 186.36 360.73
  A 0.40 0.40 0.0 0 0 185.96 361.13
  L 186.00 403.09
  A 0.40 0.40 0.0 0 1 185.60 403.49
  L 177.67 403.48
  A 0.40 0.40 0.0 0 1 177.27 403.08
  L 177.26 313.78
  A 0.40 0.40 0.0 0 1 177.66 313.38
  L 185.57 313.37
  A 0.40 0.40 0.0 0 1 185.97 313.77
  L 185.98 352.38
  A 0.40 0.40 0.0 0 0 186.38 352.78
  Z"
/>
<path fill="#00c2ba" d="
  M 279.26 321.38
  L 279.26 395.40
  A 0.37 0.37 0.0 0 0 279.63 395.77
  L 291.35 395.70
  A 0.37 0.37 0.0 0 1 291.72 396.08
  L 291.62 403.15
  A 0.37 0.37 0.0 0 1 291.25 403.51
  L 258.49 403.52
  A 0.37 0.37 0.0 0 1 258.12 403.15
  L 258.19 396.13
  A 0.37 0.37 0.0 0 1 258.56 395.76
  L 270.12 395.73
  A 0.37 0.37 0.0 0 0 270.49 395.36
  L 270.49 321.40
  A 0.37 0.37 0.0 0 0 270.12 321.03
  L 258.47 320.99
  A 0.37 0.37 0.0 0 1 258.10 320.62
  L 258.19 313.74
  A 0.37 0.37 0.0 0 1 258.56 313.37
  L 291.29 313.36
  A 0.37 0.37 0.0 0 1 291.66 313.73
  L 291.67 320.64
  A 0.37 0.37 0.0 0 1 291.30 321.01
  L 279.63 321.01
  A 0.37 0.37 0.0 0 0 279.26 321.38
  Z"
/>
<path fill="#00c2ba" d="
  M 320.44 395.50
  L 362.17 395.48
  A 0.30 0.30 0.0 0 1 362.47 395.78
  L 362.37 403.22
  A 0.30 0.30 0.0 0 1 362.07 403.52
  L 311.54 403.51
  A 0.30 0.30 0.0 0 1 311.24 403.21
  L 311.24 313.64
  A 0.30 0.30 0.0 0 1 311.54 313.34
  L 319.86 313.31
  A 0.30 0.30 0.0 0 1 320.16 313.61
  L 320.14 395.20
  A 0.30 0.30 0.0 0 0 320.44 395.50
  Z"
/>
<path fill="#00c2ba" d="
  M 388.00 395.49
  L 429.58 395.49
  A 0.34 0.34 0.0 0 1 429.92 395.83
  L 430.03 403.19
  A 0.34 0.34 0.0 0 1 429.69 403.53
  L 379.16 403.51
  A 0.34 0.34 0.0 0 1 378.82 403.17
  L 378.80 313.69
  A 0.34 0.34 0.0 0 1 379.14 313.35
  L 387.37 313.30
  A 0.34 0.34 0.0 0 1 387.71 313.64
  L 387.66 395.15
  A 0.34 0.34 0.0 0 0 388.00 395.49
  Z"
/>
<path fill="#00c2ba" d="
  M 140.11 468.03
  L 163.97 468.02
  A 0.41 0.41 0.0 0 1 164.38 468.43
  L 164.34 471.93
  A 0.41 0.41 0.0 0 1 163.93 472.34
  L 135.27 472.29
  A 0.41 0.41 0.0 0 1 134.86 471.88
  L 134.97 422.81
  A 0.41 0.41 0.0 0 1 135.38 422.40
  L 164.05 422.33
  A 0.41 0.41 0.0 0 1 164.46 422.76
  L 164.32 426.51
  A 0.41 0.41 0.0 0 1 163.90 426.91
  L 140.12 426.82
  A 0.41 0.41 0.0 0 0 139.71 427.23
  L 139.69 443.38
  A 0.41 0.41 0.0 0 0 140.10 443.79
  L 160.46 443.76
  A 0.41 0.41 0.0 0 1 160.87 444.17
  L 160.88 447.73
  A 0.41 0.41 0.0 0 1 160.47 448.14
  L 140.12 448.13
  A 0.41 0.41 0.0 0 0 139.71 448.54
  L 139.70 467.62
  A 0.41 0.41 0.0 0 0 140.11 468.03
  Z"
/>
<path fill="#00c2ba" d="
  M 181.81 443.55
  L 201.78 443.46
  A 0.52 0.52 0.0 0 1 202.30 444.00
  L 202.20 447.43
  A 0.52 0.52 0.0 0 1 201.68 447.94
  L 181.86 447.81
  A 0.52 0.52 0.0 0 0 181.34 448.33
  L 181.35 471.86
  A 0.52 0.52 0.0 0 1 180.83 472.38
  L 177.05 472.35
  A 0.52 0.52 0.0 0 1 176.53 471.83
  L 176.51 422.88
  A 0.52 0.52 0.0 0 1 177.03 422.36
  L 205.42 422.30
  A 0.52 0.52 0.0 0 1 205.94 422.82
  L 205.91 426.44
  A 0.52 0.52 0.0 0 1 205.39 426.96
  L 181.87 426.86
  A 0.52 0.52 0.0 0 0 181.35 427.38
  L 181.29 443.03
  A 0.52 0.52 0.0 0 0 181.81 443.55
  Z"
/>
<path fill="#00c2ba" d="
  M 221.91 468.00
  L 245.78 468.00
  A 0.41 0.41 0.0 0 1 246.19 468.42
  L 246.08 471.97
  A 0.41 0.41 0.0 0 1 245.67 472.37
  L 217.05 472.37
  A 0.41 0.41 0.0 0 1 216.64 471.96
  L 216.68 422.81
  A 0.41 0.41 0.0 0 1 217.09 422.40
  L 245.86 422.22
  A 0.41 0.41 0.0 0 1 246.27 422.65
  L 246.09 426.62
  A 0.41 0.41 0.0 0 1 245.68 427.01
  L 221.89 426.86
  A 0.41 0.41 0.0 0 0 221.48 427.27
  L 221.49 443.34
  A 0.41 0.41 0.0 0 0 221.90 443.75
  L 242.37 443.73
  A 0.41 0.41 0.0 0 1 242.78 444.14
  L 242.75 447.79
  A 0.41 0.41 0.0 0 1 242.34 448.20
  L 221.89 448.11
  A 0.41 0.41 0.0 0 0 221.48 448.52
  L 221.50 467.59
  A 0.41 0.41 0.0 0 0 221.91 468.00
  Z"
/>
<path fill="#00c2ba" d="
  M 289.07 422.33
  L 293.28 422.35
  A 0.33 0.33 0.0 0 1 293.61 422.68
  L 293.66 472.07
  A 0.33 0.33 0.0 0 1 293.33 472.40
  L 287.94 472.38
  A 0.33 0.33 0.0 0 1 287.66 472.21
  L 263.63 428.86
  A 0.33 0.33 0.0 0 0 263.01 429.02
  L 263.01 472.05
  A 0.33 0.33 0.0 0 1 262.68 472.38
  L 258.57 472.44
  A 0.33 0.33 0.0 0 1 258.24 472.11
  L 258.25 422.74
  A 0.33 0.33 0.0 0 1 258.58 422.41
  L 265.12 422.33
  A 0.33 0.33 0.0 0 1 265.42 422.50
  L 288.14 463.41
  A 0.33 0.33 0.0 0 0 288.76 463.25
  L 288.74 422.66
  A 0.33 0.33 0.0 0 1 289.07 422.33
  Z"
/>
<path fill="#00c2ba" d="
  M 307.35 422.67
  A 0.25 0.25 0.0 0 1 307.60 422.42
  L 322.12 422.34
  A 19.93 19.81 89.7 0 1 342.03 442.17
  L 342.09 452.35
  A 19.93 19.81 89.7 0 1 322.38 472.38
  L 307.86 472.46
  A 0.25 0.25 0.0 0 1 307.61 472.21
  L 307.35 422.67
  Z
  M 312.36 427.12
  L 312.36 467.68
  A 0.29 0.29 0.0 0 0 312.65 467.97
  L 321.44 467.97
  A 15.65 15.30 -90.0 0 0 336.74 452.32
  L 336.74 442.48
  A 15.65 15.30 90.0 0 0 321.44 426.83
  L 312.65 426.83
  A 0.29 0.29 0.0 0 0 312.36 427.12
  Z"
/>
<path fill="#00c2ba" d="
  M 359.50 443.77
  L 380.02 443.69
  A 0.41 0.41 0.0 0 1 380.43 444.11
  L 380.39 447.83
  A 0.41 0.41 0.0 0 1 379.97 448.24
  L 359.54 448.18
  A 0.41 0.41 0.0 0 0 359.13 448.59
  L 359.12 467.57
  A 0.41 0.41 0.0 0 0 359.53 467.98
  L 383.37 467.99
  A 0.41 0.41 0.0 0 1 383.78 468.40
  L 383.75 471.98
  A 0.41 0.41 0.0 0 1 383.34 472.39
  L 354.65 472.37
  A 0.41 0.41 0.0 0 1 354.24 471.96
  L 354.24 422.77
  A 0.41 0.41 0.0 0 1 354.65 422.36
  L 383.39 422.21
  A 0.41 0.41 0.0 0 1 383.80 422.63
  L 383.74 426.61
  A 0.41 0.41 0.0 0 1 383.32 427.01
  L 359.60 426.90
  A 0.41 0.41 0.0 0 0 359.19 427.31
  L 359.09 443.36
  A 0.41 0.41 0.0 0 0 359.50 443.77
  Z"
/>
<path fill="#00c2ba" d="
  M 416.91 450.24
  Q 416.27 450.37 416.62 450.92
  L 429.83 472.16
  A 0.15 0.15 0.0 0 1 429.71 472.39
  L 424.26 472.46
  Q 424.07 472.46 423.97 472.30
  L 411.53 451.71
  A 0.94 0.93 -15.3 0 0 410.73 451.26
  L 401.25 451.26
  A 0.49 0.48 -90.0 0 0 400.77 451.75
  L 400.76 472.00
  Q 400.76 472.35 400.41 472.35
  L 396.00 472.46
  Q 395.78 472.46 395.78 472.25
  L 395.87 423.00
  Q 395.87 422.32 396.54 422.33
  Q 401.62 422.37 407.66 422.31
  C 416.47 422.23 424.97 423.19 426.62 432.92
  C 427.93 440.61 425.42 448.52 416.91 450.24
  Z
  M 400.75 427.28
  L 400.75 446.34
  A 0.47 0.47 0.0 0 0 401.22 446.81
  L 412.63 446.81
  A 8.96 8.11 0.0 0 0 421.59 438.70
  L 421.59 434.92
  A 8.96 8.11 0.0 0 0 412.63 426.81
  L 401.22 426.81
  A 0.47 0.47 0.0 0 0 400.75 427.28
  Z"
/>
<path fill="#00c2ba" d="
  M 88.26 471.78
  L 88.25 423.27
  Q 88.25 422.71 88.81 422.68
  Q 99.91 422.16 107.35 423.24
  C 114.37 424.26 119.68 429.06 121.36 435.96
  C 123.20 443.53 123.29 452.68 120.98 460.01
  Q 117.26 471.84 102.50 472.10
  Q 95.80 472.23 88.84 472.34
  Q 88.26 472.35 88.26 471.78
  Z
  M 92.82 426.89
  L 93.04 467.87
  A 0.24 0.24 0.0 0 0 93.28 468.11
  L 101.77 468.07
  A 15.84 15.81 89.7 0 0 117.50 452.15
  L 117.44 442.37
  A 15.84 15.81 89.7 0 0 101.55 426.61
  L 93.06 426.65
  A 0.24 0.24 0.0 0 0 92.82 426.89
  Z"
/>
<path fill="#123c3a" d="
  M 92.82 426.89
  A 0.24 0.24 0.0 0 1 93.06 426.65
  L 101.55 426.61
  A 15.84 15.81 89.7 0 1 117.44 442.37
  L 117.50 452.15
  A 15.84 15.81 89.7 0 1 101.77 468.07
  L 93.28 468.11
  A 0.24 0.24 0.0 0 1 93.04 467.87
  L 92.82 426.89
  Z"
/>
<path fill="#123c3a" d="
  M 312.36 427.12
  A 0.29 0.29 0.0 0 1 312.65 426.83
  L 321.44 426.83
  A 15.65 15.30 -90.0 0 1 336.74 442.48
  L 336.74 452.32
  A 15.65 15.30 -90.0 0 1 321.44 467.97
  L 312.65 467.97
  A 0.29 0.29 0.0 0 1 312.36 467.68
  L 312.36 427.12
  Z"
/>
<path fill="#123c3a" d="
  M 400.75 427.28
  A 0.47 0.47 0.0 0 1 401.22 426.81
  L 412.63 426.81
  A 8.96 8.11 -0.0 0 1 421.59 434.92
  L 421.59 438.70
  A 8.96 8.11 0.0 0 1 412.63 446.81
  L 401.22 446.81
  A 0.47 0.47 0.0 0 1 400.75 446.34
  L 400.75 427.28
  Z"
/>
</svg>
