<?xml version="1.0" encoding="UTF-8" standalone="no"?>
<!DOCTYPE svg PUBLIC "-//W3C//DTD SVG 1.1//EN" "http://www.w3.org/Graphics/SVG/1.1/DTD/svg11.dtd">
<svg xmlns="http://www.w3.org/2000/svg" version="1.1" viewBox="0.00 0.00 534.00 531.00">
<g stroke-width="2.00" fill="none" stroke-linecap="butt">
<path stroke="#097f7a" vector-effect="non-scaling-stroke" d="
  M 302.51 76.86
  C 334.37 90.82 366.52 105.25 398.17 118.81
  C 410.28 124.00 424.35 125.47 437.51 122.38
  A 0.68 0.68 0.0 0 0 437.88 121.29
  Q 428.02 109.22 417.44 97.55
  C 415.28 95.18 412.68 93.13 410.28 90.95
  Q 407.37 88.30 404.44 86.03
  Q 392.44 76.74 377.29 66.91
  Q 368.72 61.35 359.95 57.31
  Q 323.71 40.64 286.93 37.41
  Q 218.35 31.40 158.78 66.38
  C 136.34 79.55 116.49 97.47 100.21 117.59
  A 0.80 0.80 0.0 0 0 100.69 118.88
  Q 117.33 121.75 132.76 118.75
  C 139.73 117.39 147.16 114.19 153.93 111.25
  Q 194.77 93.53 235.60 75.67
  Q 247.59 70.43 259.77 69.09
  Q 272.50 67.69 283.92 70.57
  C 289.93 72.09 296.63 74.28 302.51 76.86"
/>
<path stroke="#097f7a" vector-effect="non-scaling-stroke" d="
  M 216.33 221.32
  Q 223.21 218.25 231.22 214.67
  C 245.83 208.14 260.90 204.72 276.24 206.66
  Q 287.09 208.03 297.29 212.24
  C 299.44 213.12 301.69 213.81 303.80 214.76
  Q 350.85 235.97 394.74 254.77
  C 411.43 261.92 428.56 264.03 445.87 257.50
  C 457.38 253.16 468.27 246.90 479.22 240.91
  A 2.63 2.63 0.0 0 0 480.57 238.36
  Q 479.84 230.57 478.87 222.51
  Q 476.08 199.29 468.25 177.55
  A 1.00 0.99 66.9 0 0 466.87 176.99
  Q 458.51 181.12 450.59 185.03
  C 448.15 186.24 445.56 186.91 443.04 187.93
  Q 440.60 188.93 438.02 189.40
  Q 422.64 192.23 408.44 188.97
  Q 401.95 187.47 391.05 182.70
  Q 348.80 164.17 303.73 144.42
  Q 293.00 139.72 286.24 138.08
  Q 265.92 133.16 246.29 138.85
  C 243.06 139.78 240.00 141.05 236.83 142.17
  Q 233.46 143.35 230.38 144.73
  Q 193.94 160.98 152.36 179.34
  Q 143.05 183.45 133.67 185.61
  Q 105.94 191.99 81.51 179.47
  Q 75.69 176.49 70.06 172.42
  A 0.81 0.80 -61.5 0 0 68.84 172.79
  Q 57.65 201.53 55.29 231.57
  A 2.47 2.46 -70.8 0 0 56.36 233.80
  Q 66.54 240.74 76.34 246.88
  Q 83.22 251.18 89.46 253.36
  C 108.69 260.07 128.70 259.43 147.37 251.57
  Q 152.96 249.21 158.53 246.79
  Q 188.06 233.95 216.33 221.32"
/>
<path stroke="#097f7a" vector-effect="non-scaling-stroke" d="
  M 68.09 323.91
  Q 81.37 360.21 108.31 390.77
  Q 109.01 391.56 110.04 391.61
  Q 120.24 392.14 130.75 390.45
  Q 139.50 389.04 147.50 385.55
  Q 186.74 368.44 224.03 351.82
  C 235.29 346.81 248.80 341.05 260.80 340.33
  Q 281.06 339.10 297.53 346.24
  Q 347.11 367.73 396.17 389.35
  Q 408.25 394.67 421.48 394.97
  Q 423.08 395.01 424.43 393.53
  Q 456.20 358.68 470.80 313.80
  Q 470.88 313.55 470.85 313.29
  Q 470.69 312.14 469.68 312.73
  C 457.60 319.87 443.50 326.94 429.71 328.07
  Q 417.77 329.04 405.91 325.80
  C 401.25 324.53 395.85 322.47 391.17 320.39
  Q 350.18 302.24 303.46 281.77
  Q 288.24 275.10 275.06 273.65
  Q 261.95 272.20 249.92 275.22
  Q 242.36 277.11 230.63 282.25
  Q 190.78 299.68 157.32 314.62
  Q 146.86 319.29 138.90 321.69
  Q 112.33 329.71 86.66 319.46
  C 78.75 316.30 71.30 311.16 64.15 306.13
  Q 61.88 304.53 62.64 307.21
  Q 64.94 315.28 68.09 323.91"
/>
<path stroke="#097f7a" vector-effect="non-scaling-stroke" d="
  M 360.10 440.28
  C 341.49 432.60 323.33 424.35 304.93 416.40
  Q 293.05 411.27 286.19 409.47
  Q 265.30 404.02 244.79 410.62
  Q 241.30 411.74 226.26 418.14
  Q 206.04 426.75 184.71 436.45
  Q 179.92 438.63 175.30 440.89
  A 0.46 0.45 -46.0 0 0 175.31 441.71
  Q 184.29 445.68 192.48 448.78
  Q 210.43 455.58 228.04 458.79
  Q 245.86 462.05 262.40 462.33
  Q 294.45 462.88 326.32 454.18
  Q 343.38 449.52 360.13 441.17
  A 0.49 0.49 0.0 0 0 360.10 440.28"
/>
</g>
<path fill="#123c3a" d="
  M 0.00 0.00
  L 534.00 0.00
  L 534.00 531.00
  L 0.00 531.00
  L 0.00 0.00
  Z
  M 302.51 76.86
  C 334.37 90.82 366.52 105.25 398.17 118.81
  C 410.28 124.00 424.35 125.47 437.51 122.38
  A 0.68 0.68 0.0 0 0 437.88 121.29
  Q 428.02 109.22 417.44 97.55
  C 415.28 95.18 412.68 93.13 410.28 90.95
  Q 407.37 88.30 404.44 86.03
  Q 392.44 76.74 377.29 66.91
  Q 368.72 61.35 359.95 57.31
  Q 323.71 40.64 286.93 37.41
  Q 218.35 31.40 158.78 66.38
  C 136.34 79.55 116.49 97.47 100.21 117.59
  A 0.80 0.80 0.0 0 0 100.69 118.88
  Q 117.33 121.75 132.76 118.75
  C 139.73 117.39 147.16 114.19 153.93 111.25
  Q 194.77 93.53 235.60 75.67
  Q 247.59 70.43 259.77 69.09
  Q 272.50 67.69 283.92 70.57
  C 289.93 72.09 296.63 74.28 302.51 76.86
  Z
  M 216.33 221.32
  Q 223.21 218.25 231.22 214.67
  C 245.83 208.14 260.90 204.72 276.24 206.66
  Q 287.09 208.03 297.29 212.24
  C 299.44 213.12 301.69 213.81 303.80 214.76
  Q 350.85 235.97 394.74 254.77
  C 411.43 261.92 428.56 264.03 445.87 257.50
  C 457.38 253.16 468.27 246.90 479.22 240.91
  A 2.63 2.63 0.0 0 0 480.57 238.36
  Q 479.84 230.57 478.87 222.51
  Q 476.08 199.29 468.25 177.55
  A 1.00 0.99 66.9 0 0 466.87 176.99
  Q 458.51 181.12 450.59 185.03
  C 448.15 186.24 445.56 186.91 443.04 187.93
  Q 440.60 188.93 438.02 189.40
  Q 422.64 192.23 408.44 188.97
  Q 401.95 187.47 391.05 182.70
  Q 348.80 164.17 303.73 144.42
  Q 293.00 139.72 286.24 138.08
  Q 265.92 133.16 246.29 138.85
  C 243.06 139.78 240.00 141.05 236.83 142.17
  Q 233.46 143.35 230.38 144.73
  Q 193.94 160.98 152.36 179.34
  Q 143.05 183.45 133.67 185.61
  Q 105.94 191.99 81.51 179.47
  Q 75.69 176.49 70.06 172.42
  A 0.81 0.80 -61.5 0 0 68.84 172.79
  Q 57.65 201.53 55.29 231.57
  A 2.47 2.46 -70.8 0 0 56.36 233.80
  Q 66.54 240.74 76.34 246.88
  Q 83.22 251.18 89.46 253.36
  C 108.69 260.07 128.70 259.43 147.37 251.57
  Q 152.96 249.21 158.53 246.79
  Q 188.06 233.95 216.33 221.32
  Z
  M 68.09 323.91
  Q 81.37 360.21 108.31 390.77
  Q 109.01 391.56 110.04 391.61
  Q 120.24 392.14 130.75 390.45
  Q 139.50 389.04 147.50 385.55
  Q 186.74 368.44 224.03 351.82
  C 235.29 346.81 248.80 341.05 260.80 340.33
  Q 281.06 339.10 297.53 346.24
  Q 347.11 367.73 396.17 389.35
  Q 408.25 394.67 421.48 394.97
  Q 423.08 395.01 424.43 393.53
  Q 456.20 358.68 470.80 313.80
  Q 470.88 313.55 470.85 313.29
  Q 470.69 312.14 469.68 312.73
  C 457.60 319.87 443.50 326.94 429.71 328.07
  Q 417.77 329.04 405.91 325.80
  C 401.25 324.53 395.85 322.47 391.17 320.39
  Q 350.18 302.24 303.46 281.77
  Q 288.24 275.10 275.06 273.65
  Q 261.95 272.20 249.92 275.22
  Q 242.36 277.11 230.63 282.25
  Q 190.78 299.68 157.32 314.62
  Q 146.86 319.29 138.90 321.69
  Q 112.33 329.71 86.66 319.46
  C 78.75 316.30 71.30 311.16 64.15 306.13
  Q 61.88 304.53 62.64 307.21
  Q 64.94 315.28 68.09 323.91
  Z
  M 360.10 440.28
  C 341.49 432.60 323.33 424.35 304.93 416.40
  Q 293.05 411.27 286.19 409.47
  Q 265.30 404.02 244.79 410.62
  Q 241.30 411.74 226.26 418.14
  Q 206.04 426.75 184.71 436.45
  Q 179.92 438.63 175.30 440.89
  A 0.46 0.45 -46.0 0 0 175.31 441.71
  Q 184.29 445.68 192.48 448.78
  Q 210.43 455.58 228.04 458.79
  Q 245.86 462.05 262.40 462.33
  Q 294.45 462.88 326.32 454.18
  Q 343.38 449.52 360.13 441.17
  A 0.49 0.49 0.0 0 0 360.10 440.28
  Z"
/>
<g>
<path fill="#00c2ba" d="
  M 398.17 118.81
  C 366.52 105.25 334.37 90.82 302.51 76.86
  C 296.63 74.28 289.93 72.09 283.92 70.57
  Q 272.50 67.69 259.77 69.09
  Q 247.59 70.43 235.60 75.67
  Q 194.77 93.53 153.93 111.25
  C 147.16 114.19 139.73 117.39 132.76 118.75
  Q 117.33 121.75 100.69 118.88
  A 0.80 0.80 0.0 0 1 100.21 117.59
  C 116.49 97.47 136.34 79.55 158.78 66.38
  Q 218.35 31.40 286.93 37.41
  Q 323.71 40.64 359.95 57.31
  Q 368.72 61.35 377.29 66.91
  Q 392.44 76.74 404.44 86.03
  Q 407.37 88.30 410.28 90.95
  C 412.68 93.13 415.28 95.18 417.44 97.55
  Q 428.02 109.22 437.88 121.29
  A 0.68 0.68 0.0 0 1 437.51 122.38
  C 424.35 125.47 410.28 124.00 398.17 118.81
  Z"
/>
<path fill="#00c2ba" d="
  M 216.33 221.32
  Q 188.06 233.95 158.53 246.79
  Q 152.96 249.21 147.37 251.57
  C 128.70 259.43 108.69 260.07 89.46 253.36
  Q 83.22 251.18 76.34 246.88
  Q 66.54 240.74 56.36 233.80
  A 2.47 2.46 -70.8 0 1 55.29 231.57
  Q 57.65 201.53 68.84 172.79
  A 0.81 0.80 -61.5 0 1 70.06 172.42
  Q 75.69 176.49 81.51 179.47
  Q 105.94 191.99 133.67 185.61
  Q 143.05 183.45 152.36 179.34
  Q 193.94 160.98 230.38 144.73
  Q 233.46 143.35 236.83 142.17
  C 240.00 141.05 243.06 139.78 246.29 138.85
  Q 265.92 133.16 286.24 138.08
  Q 293.00 139.72 303.73 144.42
  Q 348.80 164.17 391.05 182.70
  Q 401.95 187.47 408.44 188.97
  Q 422.64 192.23 438.02 189.40
  Q 440.60 188.93 443.04 187.93
  C 445.56 186.91 448.15 186.24 450.59 185.03
  Q 458.51 181.12 466.87 176.99
  A 1.00 0.99 66.9 0 1 468.25 177.55
  Q 476.08 199.29 478.87 222.51
  Q 479.84 230.57 480.57 238.36
  A 2.63 2.63 0.0 0 1 479.22 240.91
  C 468.27 246.90 457.38 253.16 445.87 257.50
  C 428.56 264.03 411.43 261.92 394.74 254.77
  Q 350.85 235.97 303.80 214.76
  C 301.69 213.81 299.44 213.12 297.29 212.24
  Q 287.09 208.03 276.24 206.66
  C 260.90 204.72 245.83 208.14 231.22 214.67
  Q 223.21 218.25 216.33 221.32
  Z"
/>
<path fill="#00c2ba" d="
  M 68.09 323.91
  Q 64.94 315.28 62.64 307.21
  Q 61.88 304.53 64.15 306.13
  C 71.30 311.16 78.75 316.30 86.66 319.46
  Q 112.33 329.71 138.90 321.69
  Q 146.86 319.29 157.32 314.62
  Q 190.78 299.68 230.63 282.25
  Q 242.36 277.11 249.92 275.22
  Q 261.95 272.20 275.06 273.65
  Q 288.24 275.10 303.46 281.77
  Q 350.18 302.24 391.17 320.39
  C 395.85 322.47 401.25 324.53 405.91 325.80
  Q 417.77 329.04 429.71 328.07
  C 443.50 326.94 457.60 319.87 469.68 312.73
  Q 470.69 312.14 470.85 313.29
  Q 470.88 313.55 470.80 313.80
  Q 456.20 358.68 424.43 393.53
  Q 423.08 395.01 421.48 394.97
  Q 408.25 394.67 396.17 389.35
  Q 347.11 367.73 297.53 346.24
  Q 281.06 339.10 260.80 340.33
  C 248.80 341.05 235.29 346.81 224.03 351.82
  Q 186.74 368.44 147.50 385.55
  Q 139.50 389.04 130.75 390.45
  Q 120.24 392.14 110.04 391.61
  Q 109.01 391.56 108.31 390.77
  Q 81.37 360.21 68.09 323.91
  Z"
/>
<path fill="#00c2ba" d="
  M 304.93 416.40
  C 323.33 424.35 341.49 432.60 360.10 440.28
  A 0.49 0.49 0.0 0 1 360.13 441.17
  Q 343.38 449.52 326.32 454.18
  Q 294.45 462.88 262.40 462.33
  Q 245.86 462.05 228.04 458.79
  Q 210.43 455.58 192.48 448.78
  Q 184.29 445.68 175.31 441.71
  A 0.46 0.45 -46.0 0 1 175.30 440.89
  Q 179.92 438.63 184.71 436.45
  Q 206.04 426.75 226.26 418.14
  Q 241.30 411.74 244.79 410.62
  Q 265.30 404.02 286.19 409.47
  Q 293.05 411.27 304.93 416.40
  Z"
/>
</g>
</svg>
