<svg width="219" height="266" viewBox="0 0 219 266" fill="none" xmlns="http://www.w3.org/2000/svg">
<path d="M162.315 26.8806C157.973 27.9916 153.401 27.3403 149.213 25.5079C140.393 21.6472 131.097 17.5503 121.324 13.2171C117.493 11.5188 114.326 10.5121 111.824 10.1971C109.27 9.87786 106.684 9.99278 104.066 10.5419C102.466 10.8739 100.065 11.738 96.8639 13.1341C90.6068 15.8668 84.454 18.5612 78.4055 21.2173C72.7443 23.7116 69.2901 25.1205 68.0429 25.444C64.3482 26.4103 60.5493 26.5358 56.646 25.8207C56.3693 25.7696 56.3183 25.6356 56.4928 25.4185C65.0059 14.875 75.5216 7.51548 88.0401 3.33981C92.0711 1.99475 96.2148 1.05831 100.471 0.530498C113.914 -1.13381 126.926 1.1179 139.508 7.28562C140.628 7.83472 142.747 9.14999 145.867 11.2314C151.256 14.824 155.104 17.9972 157.411 20.7512C159.08 22.7432 160.742 24.697 162.398 26.6124C162.513 26.7444 162.485 26.8338 162.315 26.8806Z" fill="#92BCBA"/>
<path d="M165.877 46.8268C167.776 45.9499 169.647 45.022 171.49 44.043C171.521 44.0262 171.556 44.0163 171.591 44.0141C171.627 44.0119 171.662 44.0173 171.696 44.03C171.729 44.0427 171.759 44.0624 171.784 44.0878C171.809 44.1131 171.829 44.1436 171.841 44.177C173.518 48.7443 174.65 53.4925 175.237 58.4216C175.438 60.1157 175.606 61.8161 175.742 63.523C175.759 63.7018 175.687 63.8359 175.525 63.9253C171.813 66.0025 168.795 67.571 166.471 68.6309C160.997 71.138 155.338 71.1486 149.494 68.6628C140.853 64.9937 131.719 60.9882 122.09 56.6466C118.383 54.978 115.437 53.9458 113.254 53.55C109.985 52.9583 106.822 53.0115 103.766 53.7096C101.71 54.1778 99.3562 55.0163 96.7043 56.2252C95.1762 56.9233 93.6013 57.632 91.9796 58.3513C84.9265 61.4841 78.1416 64.4616 71.6248 67.2837C66.0572 69.6929 60.3492 70.0781 54.5007 68.4393C52.6151 67.9115 50.5932 66.9602 48.4352 65.5853C46.6134 64.4275 44.7298 63.1889 42.7846 61.8694C42.6567 61.7824 42.5544 61.6626 42.4881 61.5223C42.4219 61.382 42.3942 61.2263 42.4079 61.0713C42.9485 54.7205 44.3595 48.6251 46.641 42.7852C46.7177 42.5936 46.8453 42.5511 47.0241 42.6575C48.2053 43.3598 49.2333 44.2026 50.4528 44.8219C57.3228 48.3336 64.7207 48.357 72.6464 44.8921C79.112 42.0658 86.6227 38.7287 95.1784 34.8808C99.8648 32.7738 103.483 31.5798 106.033 31.2989C110.455 30.8094 114.597 31.4053 118.457 33.0866C128.648 37.5347 138.995 42.0573 149.5 46.6544C153.667 48.4804 158.169 48.889 163.004 47.8802C163.43 47.7909 163.828 47.6397 164.198 47.4269C164.76 47.1013 165.309 47.0885 165.877 46.8268Z" fill="#92BCBA"/>
<path d="M172.652 86.9106C169.753 96.1494 164.537 105.107 157.909 112.162C157.764 112.32 157.583 112.397 157.366 112.392C154.655 112.371 151.901 111.745 149.104 110.515C138.765 105.961 128.596 101.508 118.598 97.1582C114.516 95.3832 110.225 94.7724 105.726 95.3258C103.321 95.6195 99.6456 96.8773 94.6995 99.0992C87.1356 102.496 79.3376 105.937 71.3055 109.423C69.4624 110.224 67.6641 110.756 65.9104 111.02C63.7949 111.335 61.6794 111.435 59.5639 111.32C59.4629 111.314 59.364 111.287 59.273 111.242C59.182 111.197 59.1007 111.135 59.0339 111.058C52.1894 103.341 47.4029 94.5383 44.6745 84.6504C44.5894 84.3439 44.683 84.2736 44.9554 84.4397C46.89 85.64 48.7608 87.1468 50.7273 88.0918C56.4523 90.8457 62.4753 91.2906 68.7963 89.4262C72.2952 88.3918 75.7621 86.5211 79.2227 85.0398C83.9815 82.9967 88.4509 81.0302 92.6308 79.1403C95.1124 78.0165 97.5492 76.9673 99.9414 75.9926C102.58 74.9199 105.19 74.3346 107.769 74.2367C110.106 74.1516 112.268 74.3559 114.256 74.8497C116.065 75.2966 117.838 75.8989 119.575 76.6566C128.577 80.5811 137.878 84.6716 147.476 88.9282C150.005 90.0519 152.207 90.7925 154.085 91.1501C158.239 91.9418 162.178 91.5268 165.903 89.905C167.993 88.9941 170.14 87.913 172.345 86.6616C172.656 86.487 172.758 86.5701 172.652 86.9106Z" fill="#92BCBA"/>
<path d="M134.304 125.117C135.543 125.675 136.754 126.171 137.937 126.605C137.964 126.615 137.987 126.633 138.003 126.656C138.02 126.679 138.03 126.706 138.031 126.735C138.032 126.763 138.025 126.791 138.011 126.816C137.997 126.841 137.976 126.86 137.95 126.873C133.54 129.095 128.82 130.755 123.789 131.853C108.538 135.182 93.9269 133.56 79.957 126.988C79.9396 126.979 79.9251 126.965 79.915 126.948C79.9049 126.931 79.8995 126.912 79.8995 126.892C79.8995 126.873 79.9049 126.853 79.915 126.836C79.9251 126.82 79.9396 126.806 79.957 126.796C86.5206 123.766 93.0416 120.891 99.52 118.171C105.803 115.536 111.987 115.5 118.074 118.062C123.689 120.424 129.099 122.776 134.304 125.117Z" fill="#92BCBA"/>
<path d="M6.37842 200.337C7.07437 205.534 8.79827 210.501 12.8654 213.93C14.8745 215.628 17.3603 216.695 20.3228 217.129C26.8737 218.086 33.0159 217.027 37.5235 211.817C38.3238 210.897 38.9261 209.984 39.3304 209.077C39.6497 208.362 40.1307 208.226 40.7734 208.669C41.7652 209.354 42.8357 209.995 43.9849 210.591C44.6447 210.931 44.7426 211.391 44.2787 211.97C42.8038 213.815 41.7822 215.839 39.9306 217.403C37.4575 219.502 34.8313 220.892 32.0517 221.573C27.6803 222.645 23.2918 222.805 18.8863 222.051C15.2767 221.43 12.295 220.311 9.94115 218.693C7.20845 216.807 5.0738 214.292 3.53718 211.146C2.37515 208.771 1.47489 206.268 0.989647 203.631C-0.0617183 197.876 -0.270291 191.941 0.363934 185.824C0.789587 181.716 1.709 178.045 3.12217 174.81C4.4119 171.856 6.45504 169.238 9.25159 166.957C9.74534 166.553 10.8499 165.91 12.5653 165.029C18.1329 162.162 25.8521 162.162 31.7708 163.63C35.3761 164.524 38.3982 166.401 40.8372 169.262C41.5694 170.122 42.5845 171.571 43.8828 173.61C43.9381 173.704 43.9211 173.778 43.8317 173.833L39.3049 176.636C39.19 176.704 39.1006 176.683 39.0367 176.572C37.051 173.176 34.8483 170.334 30.9855 168.943C26.8268 167.453 22.4894 167.338 17.9732 168.598C13.2804 169.913 10.0114 173.246 8.21725 177.773C7.61069 179.312 7.04883 180.952 6.75513 182.587C5.69951 188.406 5.57394 194.322 6.37842 200.337Z" fill="#92BCBA"/>
<path d="M62.6541 189.023L90.1599 188.997C90.1934 188.997 90.2266 188.991 90.2576 188.978C90.2886 188.965 90.3168 188.946 90.3405 188.922C90.3642 188.899 90.383 188.871 90.3959 188.84C90.4087 188.809 90.4153 188.775 90.4153 188.742V164.122C90.4153 164.054 90.4422 163.989 90.4901 163.941C90.538 163.894 90.603 163.867 90.6707 163.867L95.7658 163.828C95.8335 163.828 95.8985 163.855 95.9464 163.903C95.9942 163.951 96.0211 164.016 96.0211 164.084L96.0275 221.151C96.0275 221.219 96.0006 221.284 95.9527 221.332C95.9048 221.38 95.8399 221.407 95.7721 221.407L90.6643 221.4C90.5966 221.4 90.5316 221.373 90.4837 221.325C90.4358 221.278 90.4089 221.213 90.4089 221.145L90.4217 194.373C90.4217 194.306 90.3948 194.241 90.3469 194.193C90.299 194.145 90.234 194.118 90.1663 194.118L62.6414 194.099C62.5736 194.099 62.5087 194.126 62.4608 194.174C62.4129 194.221 62.386 194.286 62.386 194.354L62.4115 221.145C62.4115 221.213 62.3846 221.278 62.3367 221.325C62.2888 221.373 62.2239 221.4 62.1561 221.4L57.093 221.394C57.0594 221.394 57.0262 221.387 56.9952 221.374C56.9642 221.362 56.9361 221.343 56.9124 221.319C56.8887 221.295 56.8699 221.267 56.857 221.236C56.8442 221.205 56.8376 221.172 56.8376 221.138L56.8312 164.122C56.8312 164.054 56.8581 163.989 56.906 163.941C56.9539 163.894 57.0189 163.867 57.0866 163.867L62.137 163.86C62.2047 163.86 62.2697 163.887 62.3176 163.935C62.3655 163.983 62.3924 164.048 62.3924 164.116L62.3987 188.767C62.3987 188.835 62.4257 188.9 62.4735 188.948C62.5214 188.996 62.5864 189.023 62.6541 189.023Z" fill="#92BCBA"/>
<path d="M121.956 168.975V216.235C121.956 216.266 121.962 216.297 121.974 216.325C121.986 216.354 122.003 216.38 122.025 216.402C122.047 216.424 122.073 216.441 122.102 216.453C122.131 216.465 122.161 216.471 122.192 216.471L129.675 216.426C129.707 216.426 129.738 216.433 129.767 216.445C129.796 216.457 129.823 216.475 129.845 216.498C129.867 216.52 129.884 216.547 129.896 216.577C129.907 216.606 129.913 216.637 129.912 216.669L129.848 221.183C129.846 221.245 129.821 221.303 129.776 221.346C129.732 221.389 129.673 221.413 129.612 221.413L108.695 221.419C108.632 221.419 108.572 221.394 108.528 221.35C108.484 221.306 108.459 221.246 108.459 221.183L108.503 216.701C108.503 216.638 108.528 216.578 108.573 216.534C108.617 216.49 108.677 216.465 108.74 216.465L116.121 216.446C116.183 216.446 116.243 216.421 116.288 216.376C116.332 216.332 116.357 216.272 116.357 216.209V168.987C116.357 168.925 116.332 168.865 116.288 168.82C116.243 168.776 116.183 168.751 116.121 168.751L108.682 168.726C108.62 168.726 108.559 168.701 108.515 168.656C108.471 168.612 108.446 168.552 108.446 168.489L108.503 164.097C108.503 164.034 108.528 163.974 108.573 163.929C108.617 163.885 108.677 163.86 108.74 163.86L129.637 163.854C129.7 163.854 129.76 163.879 129.804 163.923C129.849 163.967 129.873 164.027 129.873 164.09L129.88 168.502C129.88 168.565 129.855 168.625 129.811 168.669C129.766 168.713 129.706 168.738 129.644 168.738H122.192C122.161 168.738 122.131 168.744 122.102 168.756C122.073 168.768 122.047 168.786 122.025 168.807C122.003 168.829 121.986 168.855 121.974 168.884C121.962 168.913 121.956 168.944 121.956 168.975Z" fill="#92BCBA"/>
<path d="M148.249 216.299L174.893 216.286C174.918 216.286 174.943 216.291 174.966 216.301C174.989 216.31 175.01 216.324 175.028 216.342C175.046 216.36 175.06 216.381 175.07 216.404C175.079 216.427 175.084 216.452 175.084 216.478L175.02 221.228C175.02 221.279 175 221.327 174.964 221.363C174.928 221.399 174.88 221.419 174.829 221.419L142.566 221.413C142.516 221.413 142.467 221.393 142.431 221.357C142.395 221.321 142.375 221.272 142.375 221.221V164.033C142.375 163.982 142.395 163.933 142.431 163.897C142.467 163.861 142.516 163.841 142.566 163.841L147.879 163.822C147.929 163.822 147.978 163.842 148.014 163.878C148.05 163.914 148.07 163.963 148.07 164.014L148.057 216.107C148.057 216.132 148.062 216.157 148.072 216.18C148.082 216.204 148.096 216.225 148.113 216.243C148.131 216.26 148.152 216.275 148.176 216.284C148.199 216.294 148.224 216.299 148.249 216.299Z" fill="#92BCBA"/>
<path d="M191.385 216.292H217.933C217.961 216.292 217.989 216.298 218.016 216.309C218.042 216.32 218.066 216.336 218.086 216.356C218.106 216.376 218.122 216.4 218.133 216.426C218.144 216.453 218.15 216.481 218.15 216.509L218.22 221.209C218.22 221.266 218.197 221.321 218.156 221.362C218.116 221.403 218.061 221.426 218.003 221.426L185.74 221.413C185.712 221.413 185.684 221.407 185.657 221.396C185.631 221.386 185.607 221.37 185.587 221.349C185.567 221.329 185.551 221.305 185.54 221.279C185.529 221.253 185.523 221.224 185.523 221.196L185.511 164.065C185.511 164.007 185.534 163.952 185.574 163.911C185.615 163.87 185.67 163.848 185.728 163.848L190.982 163.816C191.04 163.816 191.095 163.838 191.136 163.879C191.177 163.92 191.199 163.975 191.199 164.033L191.168 216.075C191.168 216.133 191.19 216.188 191.231 216.229C191.272 216.269 191.327 216.292 191.385 216.292Z" fill="#92BCBA"/>
<path d="M33.1116 262.608L48.3458 262.601C48.4152 262.601 48.4818 262.629 48.5309 262.678C48.58 262.727 48.6075 262.794 48.6075 262.863L48.582 265.098C48.582 265.167 48.5544 265.234 48.5053 265.283C48.4562 265.332 48.3896 265.36 48.3202 265.36L30.0214 265.328C29.9519 265.328 29.8854 265.3 29.8363 265.251C29.7872 265.202 29.7596 265.135 29.7596 265.066L29.8298 233.736C29.8298 233.666 29.8574 233.6 29.9065 233.551C29.9556 233.501 30.0222 233.474 30.0916 233.474L48.3968 233.429C48.4323 233.429 48.4674 233.436 48.5001 233.45C48.5327 233.464 48.5621 233.485 48.5866 233.51C48.6111 233.536 48.6301 233.566 48.6425 233.6C48.6549 233.633 48.6604 233.668 48.6586 233.704L48.5692 236.098C48.5684 236.132 48.5608 236.166 48.5469 236.198C48.533 236.229 48.513 236.258 48.4881 236.281C48.4632 236.305 48.4338 236.324 48.4017 236.336C48.3697 236.348 48.3354 236.354 48.3011 236.353L33.118 236.296C33.0486 236.296 32.982 236.324 32.9329 236.373C32.8838 236.422 32.8562 236.488 32.8562 236.558L32.8434 246.869C32.8434 246.939 32.871 247.005 32.9201 247.054C32.9692 247.103 33.0358 247.131 33.1052 247.131L46.1047 247.112C46.1741 247.112 46.2407 247.139 46.2898 247.189C46.3389 247.238 46.3665 247.304 46.3665 247.374L46.3729 249.647C46.3729 249.716 46.3453 249.783 46.2962 249.832C46.2471 249.881 46.1805 249.908 46.1111 249.908L33.118 249.902C33.0486 249.902 32.982 249.93 32.9329 249.979C32.8838 250.028 32.8562 250.094 32.8562 250.164L32.8498 262.346C32.8498 262.415 32.8774 262.482 32.9265 262.531C32.9756 262.58 33.0422 262.608 33.1116 262.608Z" fill="#92BCBA"/>
<path d="M59.7363 246.978L72.4867 246.92C72.5314 246.92 72.5757 246.929 72.6168 246.947C72.658 246.964 72.6951 246.99 72.7261 247.022C72.7571 247.054 72.7813 247.092 72.7972 247.134C72.8132 247.176 72.8205 247.22 72.8188 247.265L72.7549 249.455C72.7532 249.542 72.7175 249.625 72.6554 249.686C72.5933 249.747 72.5098 249.781 72.4229 249.781L59.7682 249.698C59.6802 249.698 59.5957 249.733 59.5334 249.795C59.4712 249.857 59.4362 249.942 59.4362 250.03L59.4426 265.053C59.4426 265.141 59.4076 265.226 59.3453 265.288C59.2831 265.35 59.1986 265.385 59.1106 265.385L56.6971 265.366C56.6091 265.366 56.5246 265.331 56.4623 265.269C56.4001 265.206 56.3651 265.122 56.3651 265.034L56.3523 233.78C56.3523 233.737 56.3609 233.694 56.3776 233.653C56.3943 233.613 56.4187 233.576 56.4496 233.546C56.4804 233.515 56.517 233.49 56.5573 233.474C56.5976 233.457 56.6407 233.448 56.6843 233.448L74.8108 233.41C74.8989 233.41 74.9833 233.445 75.0456 233.507C75.1078 233.57 75.1428 233.654 75.1428 233.742L75.1237 236.053C75.1237 236.141 75.0887 236.226 75.0264 236.288C74.9642 236.35 74.8797 236.385 74.7917 236.385L59.7746 236.321C59.6865 236.321 59.6021 236.356 59.5398 236.419C59.4776 236.481 59.4426 236.565 59.4426 236.654L59.4043 246.646C59.4043 246.734 59.4393 246.818 59.5015 246.881C59.5638 246.943 59.6482 246.978 59.7363 246.978Z" fill="#92BCBA"/>
<path d="M85.3394 262.589H100.58C100.615 262.589 100.649 262.596 100.682 262.609C100.714 262.623 100.743 262.643 100.767 262.668C100.792 262.692 100.811 262.722 100.824 262.755C100.836 262.787 100.843 262.822 100.842 262.857L100.771 265.123C100.77 265.192 100.741 265.257 100.693 265.304C100.644 265.352 100.578 265.379 100.51 265.379H82.2364C82.1669 265.379 82.1003 265.351 82.0512 265.302C82.0022 265.253 81.9746 265.186 81.9746 265.117L82.0001 233.736C82.0001 233.666 82.0277 233.6 82.0768 233.551C82.1259 233.501 82.1925 233.474 82.2619 233.474L100.631 233.359C100.666 233.359 100.702 233.366 100.734 233.38C100.767 233.394 100.796 233.414 100.821 233.44C100.845 233.466 100.864 233.496 100.877 233.529C100.889 233.563 100.894 233.598 100.893 233.633L100.778 236.168C100.775 236.235 100.746 236.299 100.697 236.345C100.648 236.392 100.583 236.417 100.516 236.417L85.3266 236.321C85.2572 236.321 85.1906 236.349 85.1415 236.398C85.0924 236.447 85.0648 236.514 85.0648 236.583L85.0712 246.844C85.0712 246.913 85.0988 246.98 85.1479 247.029C85.197 247.078 85.2635 247.105 85.333 247.105L98.4027 247.093C98.4721 247.093 98.5387 247.12 98.5878 247.169C98.6369 247.218 98.6645 247.285 98.6645 247.354L98.6453 249.685C98.6453 249.754 98.6177 249.821 98.5686 249.87C98.5195 249.919 98.453 249.947 98.3835 249.947L85.3266 249.889C85.2572 249.889 85.1906 249.917 85.1415 249.966C85.0924 250.015 85.0648 250.082 85.0648 250.151L85.0776 262.327C85.0776 262.361 85.0844 262.395 85.0975 262.427C85.1107 262.459 85.13 262.488 85.1543 262.512C85.1786 262.536 85.2074 262.556 85.2392 262.569C85.2709 262.582 85.305 262.589 85.3394 262.589Z" fill="#92BCBA"/>
<path d="M128.22 233.429L130.908 233.442C130.964 233.442 131.017 233.464 131.057 233.504C131.096 233.543 131.118 233.597 131.118 233.653L131.15 265.187C131.15 265.215 131.145 265.242 131.134 265.268C131.124 265.293 131.108 265.317 131.089 265.336C131.069 265.356 131.046 265.371 131.02 265.382C130.995 265.392 130.967 265.398 130.94 265.398L127.498 265.385C127.462 265.384 127.426 265.374 127.394 265.355C127.363 265.336 127.337 265.309 127.319 265.277L111.977 237.598C111.954 237.557 111.919 237.525 111.876 237.506C111.833 237.487 111.784 237.483 111.739 237.495C111.693 237.507 111.653 237.533 111.625 237.571C111.596 237.608 111.581 237.654 111.581 237.701V265.174C111.581 265.23 111.559 265.284 111.519 265.323C111.48 265.363 111.426 265.385 111.37 265.385L108.746 265.423C108.69 265.423 108.637 265.401 108.597 265.362C108.558 265.322 108.535 265.269 108.535 265.213L108.542 233.691C108.542 233.635 108.564 233.581 108.603 233.542C108.643 233.502 108.697 233.48 108.752 233.48L112.928 233.429C112.967 233.428 113.005 233.437 113.039 233.456C113.073 233.476 113.101 233.504 113.12 233.538L127.626 259.658C127.648 259.699 127.684 259.732 127.727 259.751C127.77 259.769 127.818 259.773 127.864 259.761C127.909 259.75 127.95 259.723 127.978 259.686C128.007 259.649 128.022 259.603 128.022 259.556L128.009 233.64C128.009 233.584 128.031 233.53 128.071 233.491C128.11 233.451 128.164 233.429 128.22 233.429Z" fill="#92BCBA"/>
<path d="M139.891 233.646C139.891 233.604 139.908 233.563 139.938 233.533C139.968 233.503 140.008 233.487 140.051 233.487L149.322 233.436C152.676 233.419 155.9 234.743 158.284 237.118C160.668 239.492 162.017 242.722 162.034 246.097L162.072 252.596C162.08 254.267 161.762 255.924 161.134 257.471C160.506 259.018 159.581 260.426 158.413 261.613C157.244 262.801 155.854 263.745 154.323 264.392C152.792 265.039 151.149 265.377 149.488 265.385L140.217 265.436C140.174 265.436 140.134 265.419 140.104 265.389C140.074 265.36 140.057 265.319 140.057 265.277L139.891 233.646ZM143.09 236.488V262.384C143.09 262.433 143.109 262.481 143.144 262.515C143.179 262.55 143.226 262.569 143.275 262.569H148.887C150.17 262.569 151.441 262.311 152.626 261.809C153.811 261.307 154.888 260.571 155.795 259.643C156.702 258.715 157.422 257.613 157.913 256.401C158.403 255.189 158.656 253.889 158.656 252.577V246.295C158.656 244.982 158.403 243.683 157.913 242.471C157.422 241.258 156.702 240.157 155.795 239.229C154.888 238.301 153.811 237.565 152.626 237.063C151.441 236.561 150.17 236.302 148.887 236.302H143.275C143.226 236.302 143.179 236.322 143.144 236.357C143.109 236.391 143.09 236.438 143.09 236.488Z" fill="#92BCBA"/>
<path d="M173.188 247.118L186.29 247.067C186.324 247.067 186.359 247.074 186.391 247.088C186.423 247.101 186.453 247.121 186.477 247.146C186.501 247.171 186.521 247.201 186.533 247.233C186.546 247.266 186.552 247.3 186.551 247.335L186.526 249.71C186.526 249.745 186.519 249.78 186.505 249.812C186.492 249.844 186.472 249.873 186.447 249.898C186.422 249.922 186.392 249.941 186.36 249.954C186.327 249.967 186.293 249.973 186.258 249.972L173.213 249.934C173.144 249.934 173.077 249.961 173.028 250.011C172.979 250.06 172.952 250.126 172.952 250.196L172.945 262.314C172.945 262.348 172.952 262.382 172.965 262.414C172.978 262.446 172.998 262.475 173.022 262.499C173.046 262.523 173.075 262.543 173.107 262.556C173.139 262.569 173.173 262.576 173.207 262.576L188.428 262.582C188.498 262.582 188.564 262.61 188.614 262.659C188.663 262.708 188.69 262.775 188.69 262.844L188.671 265.13C188.671 265.199 188.644 265.266 188.594 265.315C188.545 265.364 188.479 265.392 188.409 265.392L170.091 265.379C170.022 265.379 169.955 265.351 169.906 265.302C169.857 265.253 169.83 265.186 169.83 265.117V233.71C169.83 233.641 169.857 233.574 169.906 233.525C169.955 233.476 170.022 233.448 170.091 233.448L188.441 233.353C188.476 233.353 188.511 233.36 188.543 233.373C188.575 233.387 188.604 233.406 188.629 233.431C188.653 233.456 188.672 233.486 188.685 233.519C188.698 233.551 188.704 233.586 188.703 233.621L188.665 236.162C188.664 236.196 188.656 236.23 188.642 236.262C188.628 236.293 188.608 236.321 188.584 236.345C188.559 236.369 188.529 236.387 188.497 236.4C188.465 236.412 188.431 236.418 188.397 236.417L173.252 236.347C173.217 236.347 173.183 236.354 173.152 236.367C173.12 236.38 173.091 236.399 173.067 236.424C173.042 236.448 173.023 236.477 173.01 236.509C172.997 236.54 172.99 236.574 172.99 236.609L172.926 246.856C172.926 246.926 172.954 246.992 173.003 247.042C173.052 247.091 173.119 247.118 173.188 247.118Z" fill="#92BCBA"/>
<path d="M209.843 251.249C209.571 251.305 209.509 251.449 209.658 251.683L218.092 265.245C218.101 265.259 218.106 265.275 218.107 265.292C218.108 265.309 218.104 265.325 218.096 265.34C218.089 265.355 218.077 265.368 218.063 265.377C218.049 265.386 218.032 265.391 218.016 265.392L214.536 265.436C214.455 265.436 214.393 265.402 214.351 265.334L206.408 252.188C206.355 252.1 206.281 252.028 206.191 251.978C206.102 251.927 206 251.901 205.897 251.9H199.845C199.763 251.9 199.685 251.933 199.628 251.992C199.57 252.051 199.538 252.13 199.538 252.213L199.532 265.143C199.532 265.291 199.457 265.366 199.308 265.366L196.493 265.436C196.399 265.436 196.352 265.392 196.352 265.302L196.41 233.857C196.41 233.568 196.552 233.425 196.837 233.429C199 233.446 201.366 233.442 203.937 233.416C209.562 233.365 214.989 233.978 216.043 240.191C216.879 245.101 215.277 250.151 209.843 251.249ZM199.525 236.59V248.759C199.525 248.799 199.533 248.838 199.548 248.874C199.563 248.91 199.585 248.943 199.613 248.971C199.641 248.999 199.674 249.021 199.711 249.036C199.747 249.051 199.786 249.059 199.825 249.059H207.11C208.628 249.059 210.083 248.514 211.156 247.543C212.228 246.571 212.831 245.254 212.831 243.881V241.468C212.831 240.094 212.228 238.777 211.156 237.806C210.083 236.835 208.628 236.29 207.11 236.29H199.825C199.746 236.29 199.669 236.321 199.613 236.377C199.557 236.434 199.525 236.51 199.525 236.59Z" fill="#92BCBA"/>
<path d="M0.00638617 265.002L0 234.029C0 233.791 0.119182 233.665 0.357548 233.653C5.08231 233.431 9.02812 233.55 12.195 234.01C16.6771 234.661 20.0675 237.726 21.1401 242.132C22.3149 246.965 22.3724 252.807 20.8975 257.487C19.314 262.523 15.381 265.096 9.09835 265.206C6.24647 265.262 3.33925 265.313 0.376701 265.36C0.129822 265.364 0.00638617 265.245 0.00638617 265.002ZM2.91786 236.341L3.05832 262.506C3.05832 262.546 3.07447 262.585 3.10321 262.614C3.13194 262.643 3.17092 262.659 3.21156 262.659L8.63226 262.633C9.95789 262.627 11.2692 262.358 12.4914 261.844C13.7135 261.33 14.8226 260.579 15.7552 259.635C16.6878 258.691 17.4257 257.573 17.9268 256.343C18.4279 255.113 18.6823 253.797 18.6756 252.469L18.6373 246.224C18.6306 244.896 18.3628 243.582 17.8493 242.358C17.3358 241.133 16.5867 240.022 15.6446 239.088C14.7025 238.154 13.5859 237.414 12.3586 236.912C11.1314 236.41 9.81741 236.155 8.4918 236.162L3.07109 236.187C3.05097 236.187 3.03104 236.191 3.01245 236.199C2.99386 236.207 2.97697 236.218 2.96274 236.232C2.94851 236.247 2.93722 236.263 2.92952 236.282C2.92182 236.301 2.91786 236.321 2.91786 236.341Z" fill="#92BCBA"/>
</svg>
